<svg id="Ebene_1" data-name="Ebene 1" xmlns="http://www.w3.org/2000/svg" viewBox="0 0 228.77 164.74"><defs><style>.cls-1{fill:#fff;}.cls-2,.cls-3,.cls-4,.cls-5{fill:none;stroke-miterlimit:10;}.cls-2,.cls-3{stroke:#1d1d1b;stroke-width:0.8px;}.cls-2,.cls-4,.cls-5{stroke-linecap:round;}.cls-4,.cls-5{stroke:#b1b1b1;}.cls-4{stroke-width:0.53px;}.cls-5{stroke-width:0.4px;}</style></defs><path class="cls-1" d="M14.9,47.23c.59-.43.25-.26.69-.48s1.06-.46,1.55-.72a16.71,16.71,0,0,1,3.34-1.27,59.6,59.6,0,0,1,8.76-1.26c2.79-.31,6.13-.83,8.67.37,2.06,1,4.31,1.76,5.59,3.61a14.57,14.57,0,0,1,1.7,2.76,15,15,0,0,1,.33,3.25,12,12,0,0,0,1.24,2.77c.46,1,.87,2.08,1.38,3.1a16,16,0,0,1,1.07,2.3,14.58,14.58,0,0,1,.35,2.63,2.76,2.76,0,0,1-.75,2.51c-.49.62-1.14,1.27-1.54,1.84a27.7,27.7,0,0,1-3,1.4c-1,.57-2.18,1-3.22,1.57a30.44,30.44,0,0,1-6.43,2.58c-.32.11-.43.17-.77.27a24.46,24.46,0,0,1-8.37.82c-2.57-.31-5.63-.48-7.73-1.62a30.35,30.35,0,0,1-2.59-2,15.4,15.4,0,0,1-2.39-2.23,7.15,7.15,0,0,1-2-3.09,18.92,18.92,0,0,1-1.06-3.07A55.21,55.21,0,0,1,9,56.47,10,10,0,0,1,9.24,53a7.47,7.47,0,0,1,1.68-3c.73-.52,1.88-1.51,2.48-1.85,1-.68,1.22-.7,1.5-.94" transform="translate(-2.58 -12.84)"/><path class="cls-2" d="M14.9,47.23c.59-.43.25-.26.69-.48s1.06-.46,1.55-.72a16.71,16.71,0,0,1,3.34-1.27,59.6,59.6,0,0,1,8.76-1.26c2.79-.31,6.13-.83,8.67.37,2.06,1,4.31,1.76,5.59,3.61a14.57,14.57,0,0,1,1.7,2.76,15,15,0,0,1,.33,3.25,12,12,0,0,0,1.24,2.77c.46,1,.87,2.08,1.38,3.1a16,16,0,0,1,1.07,2.3,14.58,14.58,0,0,1,.35,2.63,2.76,2.76,0,0,1-.75,2.51c-.49.62-1.14,1.27-1.54,1.84a27.7,27.7,0,0,1-3,1.4c-1,.57-2.18,1-3.22,1.57a30.44,30.44,0,0,1-6.43,2.58c-.32.11-.43.17-.77.27a24.46,24.46,0,0,1-8.37.82c-2.57-.31-5.63-.48-7.73-1.62a30.35,30.35,0,0,1-2.59-2,15.4,15.4,0,0,1-2.39-2.23,7.15,7.15,0,0,1-2-3.09,18.92,18.92,0,0,1-1.06-3.07A55.21,55.21,0,0,1,9,56.47,10,10,0,0,1,9.24,53a7.47,7.47,0,0,1,1.68-3c.73-.52,1.88-1.51,2.48-1.85,1-.68,1.22-.7,1.5-.94" transform="translate(-2.58 -12.84)"/><path class="cls-1" d="M20.73,79.15s1.52-1.16,2.34-1.62a9.83,9.83,0,0,1,3.41-1.27A59.34,59.34,0,0,0,34.29,75c2.74-.71,5.37-1.24,8.28-1.7a11,11,0,0,1,7.18,1.35,21.91,21.91,0,0,1,2.87,2.15,5.57,5.57,0,0,1,2.25,3.07A6.64,6.64,0,0,1,56,82.78a18.58,18.58,0,0,1,.17,3.6,11.47,11.47,0,0,0,.92,3.18A10,10,0,0,1,57.65,93c0,2.2.8,4.47-.18,6.5a7.28,7.28,0,0,1-4.83,4.18,46.21,46.21,0,0,0-6.7,2.7,27.22,27.22,0,0,1-3.71,1.18,25.55,25.55,0,0,1-4.48.74,17.65,17.65,0,0,1-4.48.2c-.78-.12-1.48-.37-2.27-.47a6.91,6.91,0,0,1-1.75-.37c-1.24-.47-2.54-.76-3.71-1.3a12.91,12.91,0,0,1-1.55-.63c-.45-.28-.91-.8-1.34-1.11-1.07-.76-1.47-1.77-2.29-2.74a13.74,13.74,0,0,1-2-2.87,29.36,29.36,0,0,1-1.89-7.31,38.17,38.17,0,0,1-.57-6.94,4.51,4.51,0,0,1,1.28-3c.62-.74,2-1.09,2.68-1.73a7.23,7.23,0,0,1,.85-.8" transform="translate(-2.58 -12.84)"/><path class="cls-2" d="M20.73,79.15s1.52-1.16,2.34-1.62a9.83,9.83,0,0,1,3.41-1.27A59.34,59.34,0,0,0,34.29,75c2.74-.71,5.37-1.24,8.28-1.7a11,11,0,0,1,7.18,1.35,21.91,21.91,0,0,1,2.87,2.15,5.57,5.57,0,0,1,2.25,3.07A6.64,6.64,0,0,1,56,82.78a18.58,18.58,0,0,1,.17,3.6,11.47,11.47,0,0,0,.92,3.18A10,10,0,0,1,57.65,93c0,2.2.8,4.47-.18,6.5a7.28,7.28,0,0,1-4.83,4.18,46.21,46.21,0,0,0-6.7,2.7,27.22,27.22,0,0,1-3.71,1.18,25.55,25.55,0,0,1-4.48.74,17.65,17.65,0,0,1-4.48.2c-.78-.12-1.48-.37-2.27-.47a6.91,6.91,0,0,1-1.75-.37c-1.24-.47-2.54-.76-3.71-1.3a12.91,12.91,0,0,1-1.55-.63c-.45-.28-.91-.8-1.34-1.11-1.07-.76-1.47-1.77-2.29-2.74a13.74,13.74,0,0,1-2-2.87,29.36,29.36,0,0,1-1.89-7.31,38.17,38.17,0,0,1-.57-6.94,4.51,4.51,0,0,1,1.28-3c.62-.74,2-1.09,2.68-1.73a7.23,7.23,0,0,1,.85-.8" transform="translate(-2.58 -12.84)"/><path class="cls-1" d="M29.55,117.76a5.94,5.94,0,0,1,.05-1.63,8.49,8.49,0,0,1,1.79-3.93,6.17,6.17,0,0,1,3.75-3,20.28,20.28,0,0,1,2.71-.73,40.51,40.51,0,0,0,5.85-1.24,16.39,16.39,0,0,1,3-.72c1.51-.12,2.93-.27,4.47-.27.79,0,1.57-.21,2.36-.2a6.12,6.12,0,0,1,2,.67,5.39,5.39,0,0,1,2.25,1.2c.54.59.86,1.22,1.41,1.8a14,14,0,0,1,1.55,1.63,9,9,0,0,1,.9,2.16c.57,1.49,1.44,3.14,1.43,4.73a9.54,9.54,0,0,1-1.58,4.3,4.25,4.25,0,0,1-1.88,1.48,24.56,24.56,0,0,1-2.24,1.25,14.31,14.31,0,0,1-2.47.82,17.78,17.78,0,0,0-2.34.92c-1.68.62-3.35,1.44-5.08,2a6.5,6.5,0,0,1-4.09-.08c-.75-.28-1.5-.46-2.27-.71a12.28,12.28,0,0,1-2.26-.78,13.22,13.22,0,0,1-2.47-1.44,13.86,13.86,0,0,0-2.37-1.47,13,13,0,0,1-2.38-1.87,8.38,8.38,0,0,1-2.15-5" transform="translate(-2.58 -12.84)"/><path class="cls-3" d="M29.55,117.76a5.94,5.94,0,0,1,.05-1.63,8.49,8.49,0,0,1,1.79-3.93,6.17,6.17,0,0,1,3.75-3,20.28,20.28,0,0,1,2.71-.73,40.51,40.51,0,0,0,5.85-1.24,16.39,16.39,0,0,1,3-.72c1.51-.12,2.93-.27,4.47-.27.79,0,1.57-.21,2.36-.2a6.12,6.12,0,0,1,2,.67,5.39,5.39,0,0,1,2.25,1.2c.54.59.86,1.22,1.41,1.8a14,14,0,0,1,1.55,1.63,9,9,0,0,1,.9,2.16c.57,1.49,1.44,3.14,1.43,4.73a9.54,9.54,0,0,1-1.58,4.3,4.25,4.25,0,0,1-1.88,1.48,24.56,24.56,0,0,1-2.24,1.25,14.31,14.31,0,0,1-2.47.82,17.78,17.78,0,0,0-2.34.92c-1.68.62-3.35,1.44-5.08,2a6.5,6.5,0,0,1-4.09-.08c-.75-.28-1.5-.46-2.27-.71a12.28,12.28,0,0,1-2.26-.78,13.22,13.22,0,0,1-2.47-1.44,13.86,13.86,0,0,0-2.37-1.47,13,13,0,0,1-2.38-1.87A8.38,8.38,0,0,1,29.55,117.76Z" transform="translate(-2.58 -12.84)"/><path class="cls-1" d="M42.2,133.23a8.05,8.05,0,0,1,3.78-3c1.68-.62,3.48-1.33,5.16-2.14,3.29-1.58,7.08-3.08,11-2.08a20.67,20.67,0,0,1,2.33,1,6.32,6.32,0,0,1,2.2,1.25c1.13,1.2,1.14,2.92,1.33,4.42.1.82,0,1.66.2,2.47a18.2,18.2,0,0,1,.43,2.4,5.25,5.25,0,0,1-2.35,4.35,5.67,5.67,0,0,0-1.37,1.83,7.09,7.09,0,0,1-1.43,1.83,9.45,9.45,0,0,1-4.5,2.62,16.8,16.8,0,0,1-3.2.48,4.55,4.55,0,0,1-2.52-.77,10.16,10.16,0,0,0-2.58-1.2c-.91-.22-2-.41-2.83-.71a16.25,16.25,0,0,1-2.46-1.26,9,9,0,0,1-2-1.31,11.83,11.83,0,0,1-1.34-2.12,7.88,7.88,0,0,1-.81-2.44c-.45-1.79-.38-4.35,1.07-5.66" transform="translate(-2.58 -12.84)"/><path class="cls-3" d="M42.2,133.23a8.05,8.05,0,0,1,3.78-3c1.68-.62,3.48-1.33,5.16-2.14,3.29-1.58,7.08-3.08,11-2.08a20.67,20.67,0,0,1,2.33,1,6.32,6.32,0,0,1,2.2,1.25c1.13,1.2,1.14,2.92,1.33,4.42.1.82,0,1.66.2,2.47a18.2,18.2,0,0,1,.43,2.4,5.25,5.25,0,0,1-2.35,4.35,5.67,5.67,0,0,0-1.37,1.83,7.09,7.09,0,0,1-1.43,1.83,9.45,9.45,0,0,1-4.5,2.62,16.8,16.8,0,0,1-3.2.48,4.55,4.55,0,0,1-2.52-.77,10.16,10.16,0,0,0-2.58-1.2c-.91-.22-2-.41-2.83-.71a16.25,16.25,0,0,1-2.46-1.26,9,9,0,0,1-2-1.31,11.83,11.83,0,0,1-1.34-2.12,7.88,7.88,0,0,1-.81-2.44c-.45-1.79-.38-4.35,1.07-5.66" transform="translate(-2.58 -12.84)"/><path class="cls-1" d="M57.53,152c-.14-2.3,1.92-2.79,3.61-4.14.64-.53,1.39-.92,2-1.46A10.72,10.72,0,0,1,67.66,144a9.82,9.82,0,0,1,2.85-.4,11.08,11.08,0,0,0,3-.67c2-.56,3.8-1.14,5.87-.28a4.53,4.53,0,0,1,2.32,1.41,5.61,5.61,0,0,1,1.06,2.13,5.94,5.94,0,0,1,.18,2.44A16.31,16.31,0,0,1,82,151a6.89,6.89,0,0,0-.88,2.08,13.84,13.84,0,0,1-.56,2.35,12.53,12.53,0,0,0-.7,2.74,5,5,0,0,1-.89,2.32,11.64,11.64,0,0,1-3.28,2.89,5,5,0,0,1-1.65,1.11,9.63,9.63,0,0,1-2.63.12c-1,0-1.81-.4-2.75-.51a8.08,8.08,0,0,1-2-.45,11.39,11.39,0,0,1-3.63-2.22,33,33,0,0,1-4-4.56A8.54,8.54,0,0,1,57.53,152" transform="translate(-2.58 -12.84)"/><path class="cls-3" d="M57.53,152c-.14-2.3,1.92-2.79,3.61-4.14.64-.53,1.39-.92,2-1.46A10.72,10.72,0,0,1,67.66,144a9.82,9.82,0,0,1,2.85-.4,11.08,11.08,0,0,0,3-.67c2-.56,3.8-1.14,5.87-.28a4.53,4.53,0,0,1,2.32,1.41,5.61,5.61,0,0,1,1.06,2.13,5.94,5.94,0,0,1,.18,2.44A16.31,16.31,0,0,1,82,151a6.89,6.89,0,0,0-.88,2.08,13.84,13.84,0,0,1-.56,2.35,12.53,12.53,0,0,0-.7,2.74,5,5,0,0,1-.89,2.32,11.64,11.64,0,0,1-3.28,2.89,5,5,0,0,1-1.65,1.11,9.63,9.63,0,0,1-2.63.12c-1,0-1.81-.4-2.75-.51a8.08,8.08,0,0,1-2-.45,11.39,11.39,0,0,1-3.63-2.22,33,33,0,0,1-4-4.56A8.54,8.54,0,0,1,57.53,152Z" transform="translate(-2.58 -12.84)"/><path class="cls-1" d="M76.77,164.43a11.13,11.13,0,0,1,1.89-3.37c.51-.53.67-1.11,1.18-1.61s.92-.88,1.41-1.38a8.06,8.06,0,0,1,1.42-1.31,19,19,0,0,0,1.92-1.37,17.47,17.47,0,0,0,2.27-2.52,6,6,0,0,1,4.72-2.14,3.51,3.51,0,0,1,2.47.78,4.29,4.29,0,0,1,1.64,1.7c.35.81.07,1.72.49,2.5a5.21,5.21,0,0,1,.88,2.24c.11,1.71.19,3.34.19,5.09a31.32,31.32,0,0,1-.29,6c-.31,1.6-.91,3.86-2.62,4.8a5.34,5.34,0,0,1-2.55.32,8.59,8.59,0,0,1-2.4-1c-1.62-.65-3.52-.8-5.14-1.43-.44-.17-.85-.25-1.25-.43s-.72-.45-1.14-.66c-1-.47-2-.63-2.92-1.19s-2.22-.63-2.62-1.72a4.29,4.29,0,0,1,.19-2.71,5.93,5.93,0,0,1,.26-.63" transform="translate(-2.58 -12.84)"/><path class="cls-3" d="M76.77,164.43a11.13,11.13,0,0,1,1.89-3.37c.51-.53.67-1.11,1.18-1.61s.92-.88,1.41-1.38a8.06,8.06,0,0,1,1.42-1.31,19,19,0,0,0,1.92-1.37,17.47,17.47,0,0,0,2.27-2.52,6,6,0,0,1,4.72-2.14,3.51,3.51,0,0,1,2.47.78,4.29,4.29,0,0,1,1.64,1.7c.35.81.07,1.72.49,2.5a5.21,5.21,0,0,1,.88,2.24c.11,1.71.19,3.34.19,5.09a31.32,31.32,0,0,1-.29,6c-.31,1.6-.91,3.86-2.62,4.8a5.34,5.34,0,0,1-2.55.32,8.59,8.59,0,0,1-2.4-1c-1.62-.65-3.52-.8-5.14-1.43-.44-.17-.85-.25-1.25-.43s-.72-.45-1.14-.66c-1-.47-2-.63-2.92-1.19s-2.22-.63-2.62-1.72a4.29,4.29,0,0,1,.19-2.71A5.93,5.93,0,0,1,76.77,164.43Z" transform="translate(-2.58 -12.84)"/><path class="cls-1" d="M112.56,176.85a4.3,4.3,0,0,0,2.73-.45,3.32,3.32,0,0,0,1.31-1.94c.06-.88,0-1.77,0-2.65a5.75,5.75,0,0,0-.76-2.28,16.7,16.7,0,0,1-.69-4.78,18.63,18.63,0,0,0-.69-5,10,10,0,0,0-2.86-3.88,4.38,4.38,0,0,0-1.31-.86,7.56,7.56,0,0,0-1.58,0,6.16,6.16,0,0,0-2.84.26,6,6,0,0,0-3.66,3.68c-.23.74-.76,1.05-1.39,1.57-1.58,1.31-1.83,2.78-2.54,4.44a21.39,21.39,0,0,0-.68,2.25,30.7,30.7,0,0,1-1.26,4.36c-.71,1.46.25,2.86,2,3.49a19.9,19.9,0,0,0,2.09.25c.7.17,1.35.48,2,.62,1.2.27,2.49.06,3.71.32a14.61,14.61,0,0,0,1.45.37,37,37,0,0,0,4.94.3" transform="translate(-2.58 -12.84)"/><path class="cls-3" d="M112.56,176.85a4.3,4.3,0,0,0,2.73-.45,3.32,3.32,0,0,0,1.31-1.94c.06-.88,0-1.77,0-2.65a5.75,5.75,0,0,0-.76-2.28,16.7,16.7,0,0,1-.69-4.78,18.63,18.63,0,0,0-.69-5,10,10,0,0,0-2.86-3.88,4.38,4.38,0,0,0-1.31-.86,7.56,7.56,0,0,0-1.58,0,6.16,6.16,0,0,0-2.84.26,6,6,0,0,0-3.66,3.68c-.23.74-.76,1.05-1.39,1.57-1.58,1.31-1.83,2.78-2.54,4.44a21.39,21.39,0,0,0-.68,2.25,30.7,30.7,0,0,1-1.26,4.36c-.71,1.46.25,2.86,2,3.49a19.9,19.9,0,0,0,2.09.25c.7.17,1.35.48,2,.62,1.2.27,2.49.06,3.71.32a14.61,14.61,0,0,0,1.45.37A37,37,0,0,0,112.56,176.85Z" transform="translate(-2.58 -12.84)"/><path class="cls-1" d="M39.21,20.25c0-.34-.21-.47-.25-.8-3.53-4.29-9.32-5.85-15.68-6.12A38.46,38.46,0,0,0,12.72,14c-4.07.89-7.61,2.82-8.71,6.35a22.63,22.63,0,0,0-1,5.51A21.22,21.22,0,0,0,5.11,36.51a11.37,11.37,0,0,0,2.61,3.6c1.28,1.08,2.49,1.19,4.15,2,4.28,2.2,6.43,3.52,11.32,1.38,3-1.32,6.52-.41,9.61-1.72a11.38,11.38,0,0,0,5.69-5.32c1.37-2.69,1-5.87,1-8.74,0-3.2.62-5.26-.49-8.13" transform="translate(-2.58 -12.84)"/><path class="cls-3" d="M39.21,20.25c0-.34-.21-.47-.25-.8-3.53-4.29-9.32-5.85-15.68-6.12A38.46,38.46,0,0,0,12.72,14c-4.07.89-7.61,2.82-8.71,6.35a22.63,22.63,0,0,0-1,5.51A21.22,21.22,0,0,0,5.11,36.51a11.37,11.37,0,0,0,2.61,3.6c1.28,1.08,2.49,1.19,4.15,2,4.28,2.2,6.43,3.52,11.32,1.38,3-1.32,6.52-.41,9.61-1.72a11.38,11.38,0,0,0,5.69-5.32c1.37-2.69,1-5.87,1-8.74,0-3.2.62-5.26-.49-8.13" transform="translate(-2.58 -12.84)"/><path class="cls-4" d="M29.3,46c-.39,0-1.44.15-1.62.48s.48,1.06.58,1.4a8.37,8.37,0,0,1,.35,1.62c.16,1.29.19,2.57.43,3.85a17.23,17.23,0,0,1,.68,3.25,8.36,8.36,0,0,1-.29,1.66,2.7,2.7,0,0,0-.05.9,1.82,1.82,0,0,0,.52.79c.69.81,1.92,1.64,2.12,2.64.11.58.18,1.07.34,1.62a10,10,0,0,1,.39,1.66,2.42,2.42,0,0,1-.24,1.73c-.29.43-.51.89-.78,1.32" transform="translate(-2.58 -12.84)"/><path class="cls-5" d="M25.69,47.22c.73-.08,1.25-.58,2-.65" transform="translate(-2.58 -12.84)"/><path class="cls-4" d="M13.43,18.73a5.75,5.75,0,0,0-1.46,2M11.9,35A2.79,2.79,0,0,0,14,38.17m20.38-2c-.08,1.13-.12,2.6-1.69,2.84M35,21.19c-.88-.61-1.08-1.55-2-2.17m-.59,9.41c-2.92.09-6.95-2.21-9.34-.56-1.26.88-1.52,2-3.31,2.23-2.09.26-4.26-.6-6.28-.14s-3.31,1.17-5.64.59M21.76,16.73A9.39,9.39,0,0,1,20.85,20,5.11,5.11,0,0,0,21,23.36c1,4.43,2.64,8.72,3.56,13.18m6.05,2.21c-1.06.13-1.82-.77-2.74-1.09A5.56,5.56,0,0,0,25,37.39c-1.73.32-3.61,1.11-5.29,1.58M27.45,16.7c-3-.54-5.28-1.42-8.16,0a30.07,30.07,0,0,0-3.17,1.8c-1.17.75-1.23,1.88-2,2.79m96.13,137.16c.29.57.8,1,1.05,1.63a5.85,5.85,0,0,1,.39,2.11c.08,1.34,0,2.85.88,4M92.82,154.21c.37.58.85.9,1.07,1.55a14.65,14.65,0,0,1,.56,2.14,25.41,25.41,0,0,1,.13,4.46M69.83,147.3c.41,0,.93-.57,1.31-.74a10.64,10.64,0,0,1,1.57-.61,17.05,17.05,0,0,1,4-.26m22,25.6c0,.55,1.28,1.25,1.8,1.47a10.62,10.62,0,0,0,2.84.67c1,.13,2.17.08,3.19.25s2,.37,3,.52c1.84.29,4.84.43,6.08-1M62.18,150c0,1.75.1,2.93,1.68,4.06s1.86,2.51,2.4,4c.42,1.17.87,2.67,2.45,3.16.78.24,1.61.2,2.41.38a23.36,23.36,0,0,0,2.34.82m5.14,3.84c.21,1.57,2.53,2.16,4.07,2.44a16.4,16.4,0,0,1,5.56,1.68,7.24,7.24,0,0,0,3.28,1.23c1,0,2.63.38,3.25-.26m-28.26-33a2.87,2.87,0,0,1,.38,1.66m-5.51-11.11a5,5,0,0,1,2.82,2M52.66,141.18a5.52,5.52,0,0,1-2.87-2.77,9.51,9.51,0,0,1-.89-4.09m14.41,3.17a7.51,7.51,0,0,0-3.26,1.14M57.11,130c-1.24.24-2.49.71-2.7,1.82m-4.57-1.4a6.2,6.2,0,0,0,2.5,1.25,5.75,5.75,0,0,0,1.38.2c.82,0,.78.06,1.11.68a16.6,16.6,0,0,0,3,3.83c.88.87,2,1.78,1.93,3a5.17,5.17,0,0,1-.56,1.76c-.22.53-.25,1.28-.63,1.72m-9.71-34.9a5,5,0,0,1,3.76,1.56m3.07,8.72c0,.47.52.87.8,1.26A2.39,2.39,0,0,1,57,121m-17-1.51c0-.94-.92-1.59-1.32-2.44a4.77,4.77,0,0,1-.18-3.12m6.57,9a3.46,3.46,0,0,1,1.93-.89,5.64,5.64,0,0,1,1.21-.3c.48,0,.51.17.94.36a15.72,15.72,0,0,0,2.69.62,13.35,13.35,0,0,0,2.7.11m-2.13-9.56c-.59,0-1.13.22-1.76.26a8.68,8.68,0,0,1-1.69-.31m-7.21,1.51a3,3,0,0,0,2.51.15c.82-.35,1.53-.79,2.3-1.2.57-.31,1.58-1,2.27-.56s.55,1.62.65,2.22a14.25,14.25,0,0,1,.23,2.19,7.24,7.24,0,0,1-1.06,3.89M42.36,74.8c2.09,0,3.49.51,3.51,2.39m5.85,24.16a2.92,2.92,0,0,0,2-.56,5.77,5.77,0,0,0,1.42-1.41m-25.44-.89c-.12,2.5.91,4.92,4,5.71M23.83,83.64c-.45.3-.47.9-.7,1.3a3.3,3.3,0,0,0-.68,1.56,5.45,5.45,0,0,0,.25,3m4,5.92c2-.92,4.61-.06,6.51-1.09.89-.49,1.72-1,2.62-1.47s1.66-1.33,2.57-1.49,1.44.23,2.2.15a15.4,15.4,0,0,0,2.26-.78,19.43,19.43,0,0,1,2.76-.1c1-.08,2.14-.42,3.13-.57M38.5,103.68a3.33,3.33,0,0,1,1.14-2A11.77,11.77,0,0,1,41.17,100c1.52-1.15,3.54.09,4.78,1,.56.41,1.34,1,1.26,1.66M36.3,78.76c-.16.6-.56,1-.44,1.71s.45,1.09.56,1.67a2.19,2.19,0,0,1-1.37,2.54M30,83.17a6.12,6.12,0,0,1,3,1.11c.46.24,1,.29,1.47.51a9.59,9.59,0,0,1,1.49,1A31.38,31.38,0,0,0,39.19,88c.76.42,1.78.83,1.26,1.64A3.24,3.24,0,0,0,39.68,92a28.77,28.77,0,0,0,.69,4.1,5.21,5.21,0,0,0,.93,1.56,2.79,2.79,0,0,1,.33,1.66m4.24-32c.73-.14.9-1,1.05-1.49.09-.31.28-1.59-.13-1.73M34,45.67a4.94,4.94,0,0,1,2.51-.18c.65.15,2.42.57,2.42,1.32m-17.21,21a11.11,11.11,0,0,0,1.55,1.76c.34.26,2.14.75,2.25.07M20.8,49.51c-.49.72-.29,1.53-.45,2.35a4.56,4.56,0,0,0-.05,2.29m1.34,8.1A4.83,4.83,0,0,0,25,60.36a10.71,10.71,0,0,1,3-2.26,17,17,0,0,1,4.58-1.36,18.14,18.14,0,0,1,2.22-.1,17.31,17.31,0,0,0,2.34-.38,16.21,16.21,0,0,0,3.34-.76M29.24,70.69c.77-.45,1.69-1.76,2.83-1.42a13.9,13.9,0,0,0,4.27.84" transform="translate(-2.58 -12.84)"/><path class="cls-1" d="M219,47.56c-.59-.43-.25-.26-.69-.48s-1.06-.47-1.55-.73a16.32,16.32,0,0,0-3.34-1.26,58.48,58.48,0,0,0-8.76-1.26c-2.79-.32-6.13-.84-8.67.36-2.06,1-4.31,1.76-5.59,3.62a14,14,0,0,0-1.7,2.75,15.06,15.06,0,0,0-.33,3.25,12,12,0,0,1-1.24,2.77c-.46,1-.88,2.08-1.38,3.1a15.46,15.46,0,0,0-1.07,2.3,14,14,0,0,0-.35,2.63,2.76,2.76,0,0,0,.75,2.51c.49.63,1.14,1.27,1.54,1.84a27.4,27.4,0,0,0,3,1.4c1.06.57,2.19,1,3.23,1.57a30.47,30.47,0,0,0,6.43,2.59c.32.1.43.16.77.26a24.68,24.68,0,0,0,8.36.83c2.58-.31,5.64-.49,7.74-1.63a30.35,30.35,0,0,0,2.59-2,14.93,14.93,0,0,0,2.39-2.23,7.18,7.18,0,0,0,2-3.08,18.07,18.07,0,0,0,1.05-3.08,53.36,53.36,0,0,0,.69-6.84,10,10,0,0,0-.24-3.46c-.3-.79-.91-2.44-1.68-3s-1.88-1.51-2.48-1.86c-1-.68-1.22-.7-1.5-.93" transform="translate(-2.58 -12.84)"/><path class="cls-2" d="M219,47.56c-.59-.43-.25-.26-.69-.48s-1.06-.47-1.55-.73a16.32,16.32,0,0,0-3.34-1.26,58.48,58.48,0,0,0-8.76-1.26c-2.79-.32-6.13-.84-8.67.36-2.06,1-4.31,1.76-5.59,3.62a14,14,0,0,0-1.7,2.75,15.06,15.06,0,0,0-.33,3.25,12,12,0,0,1-1.24,2.77c-.46,1-.88,2.08-1.38,3.1a15.46,15.46,0,0,0-1.07,2.3,14,14,0,0,0-.35,2.63,2.76,2.76,0,0,0,.75,2.51c.49.63,1.14,1.27,1.54,1.84a27.4,27.4,0,0,0,3,1.4c1.06.57,2.19,1,3.23,1.57a30.47,30.47,0,0,0,6.43,2.59c.32.1.43.16.77.26a24.68,24.68,0,0,0,8.36.83c2.58-.31,5.64-.49,7.74-1.63a30.35,30.35,0,0,0,2.59-2,14.93,14.93,0,0,0,2.39-2.23,7.18,7.18,0,0,0,2-3.08,18.07,18.07,0,0,0,1.05-3.08,53.36,53.36,0,0,0,.69-6.84,10,10,0,0,0-.24-3.46c-.3-.79-.91-2.44-1.68-3s-1.88-1.51-2.48-1.86c-1-.68-1.22-.7-1.5-.93" transform="translate(-2.58 -12.84)"/><path class="cls-1" d="M213.21,79.47s-1.52-1.15-2.34-1.61a9.61,9.61,0,0,0-3.42-1.27,61.19,61.19,0,0,1-7.8-1.23,82.49,82.49,0,0,0-8.28-1.69A10.88,10.88,0,0,0,184.19,75a22.07,22.07,0,0,0-2.87,2.14,5.64,5.64,0,0,0-2.25,3.07A6.64,6.64,0,0,0,178,83.1a18.66,18.66,0,0,0-.17,3.6,11.89,11.89,0,0,1-.92,3.19,9.71,9.71,0,0,0-.59,3.39c0,2.19-.8,4.46.18,6.49A7.25,7.25,0,0,0,181.3,104a45.15,45.15,0,0,1,6.7,2.71,25.87,25.87,0,0,0,3.71,1.17,26.52,26.52,0,0,0,4.48.75,17.65,17.65,0,0,0,4.48.19c.78-.11,1.48-.37,2.27-.47a6.89,6.89,0,0,0,1.75-.36c1.24-.48,2.54-.76,3.71-1.3A14.87,14.87,0,0,0,210,106c.45-.27.91-.8,1.34-1.11,1.07-.75,1.47-1.77,2.29-2.74a13.43,13.43,0,0,0,2-2.86A29.47,29.47,0,0,0,217.45,92,38.24,38.24,0,0,0,218,85a4.49,4.49,0,0,0-1.28-3c-.62-.74-2-1.09-2.69-1.73a7.1,7.1,0,0,0-.84-.81" transform="translate(-2.58 -12.84)"/><path class="cls-2" d="M213.21,79.47s-1.52-1.15-2.34-1.61a9.61,9.61,0,0,0-3.42-1.27,61.19,61.19,0,0,1-7.8-1.23,82.49,82.49,0,0,0-8.28-1.69A10.88,10.88,0,0,0,184.19,75a22.07,22.07,0,0,0-2.87,2.14,5.64,5.64,0,0,0-2.25,3.07A6.64,6.64,0,0,0,178,83.1a18.66,18.66,0,0,0-.17,3.6,11.89,11.89,0,0,1-.92,3.19,9.71,9.71,0,0,0-.59,3.39c0,2.19-.8,4.46.18,6.49A7.25,7.25,0,0,0,181.3,104a45.15,45.15,0,0,1,6.7,2.71,25.87,25.87,0,0,0,3.71,1.17,26.52,26.52,0,0,0,4.48.75,17.65,17.65,0,0,0,4.48.19c.78-.11,1.48-.37,2.27-.47a6.89,6.89,0,0,0,1.75-.36c1.24-.48,2.54-.76,3.71-1.3A14.87,14.87,0,0,0,210,106c.45-.27.91-.8,1.34-1.11,1.07-.75,1.47-1.77,2.29-2.74a13.43,13.43,0,0,0,2-2.86A29.47,29.47,0,0,0,217.45,92,38.24,38.24,0,0,0,218,85a4.49,4.49,0,0,0-1.28-3c-.62-.74-2-1.09-2.69-1.73a7.1,7.1,0,0,0-.84-.81" transform="translate(-2.58 -12.84)"/><path class="cls-1" d="M204.39,118.08a6.28,6.28,0,0,0,0-1.62,8.57,8.57,0,0,0-1.79-3.94,6.19,6.19,0,0,0-3.76-3,18.73,18.73,0,0,0-2.7-.72,41.92,41.92,0,0,1-5.85-1.25,15.6,15.6,0,0,0-3-.71c-1.51-.12-2.93-.28-4.47-.27-.79,0-1.57-.21-2.36-.2a5.89,5.89,0,0,0-2,.66,5.5,5.5,0,0,0-2.25,1.2c-.54.59-.86,1.23-1.42,1.8a14,14,0,0,0-1.54,1.64,9.57,9.57,0,0,0-.91,2.15c-.56,1.5-1.43,3.14-1.42,4.74a9.35,9.35,0,0,0,1.58,4.3,4.26,4.26,0,0,0,1.88,1.48c.78.41,1.42.91,2.24,1.25a15.2,15.2,0,0,0,2.47.81,17,17,0,0,1,2.34.93c1.68.61,3.35,1.43,5.08,2a6.5,6.5,0,0,0,4.09-.07c.75-.28,1.5-.47,2.26-.72a10.84,10.84,0,0,0,2.27-.78,12.61,12.61,0,0,0,2.46-1.44,14.35,14.35,0,0,1,2.38-1.47,12.6,12.6,0,0,0,2.38-1.87,8.38,8.38,0,0,0,2.15-5" transform="translate(-2.58 -12.84)"/><path class="cls-3" d="M204.39,118.08a6.28,6.28,0,0,0,0-1.62,8.57,8.57,0,0,0-1.79-3.94,6.19,6.19,0,0,0-3.76-3,18.73,18.73,0,0,0-2.7-.72,41.92,41.92,0,0,1-5.85-1.25,15.6,15.6,0,0,0-3-.71c-1.51-.12-2.93-.28-4.47-.27-.79,0-1.57-.21-2.36-.2a5.89,5.89,0,0,0-2,.66,5.5,5.5,0,0,0-2.25,1.2c-.54.59-.86,1.23-1.42,1.8a14,14,0,0,0-1.54,1.64,9.57,9.57,0,0,0-.91,2.15c-.56,1.5-1.43,3.14-1.42,4.74a9.35,9.35,0,0,0,1.58,4.3,4.26,4.26,0,0,0,1.88,1.48c.78.41,1.42.91,2.24,1.25a15.2,15.2,0,0,0,2.47.81,17,17,0,0,1,2.34.93c1.68.61,3.35,1.43,5.08,2a6.5,6.5,0,0,0,4.09-.07c.75-.28,1.5-.47,2.26-.72a10.84,10.84,0,0,0,2.27-.78,12.61,12.61,0,0,0,2.46-1.44,14.35,14.35,0,0,1,2.38-1.47,12.6,12.6,0,0,0,2.38-1.87A8.38,8.38,0,0,0,204.39,118.08Z" transform="translate(-2.58 -12.84)"/><path class="cls-1" d="M191.74,133.56a7.93,7.93,0,0,0-3.78-3c-1.68-.62-3.48-1.34-5.16-2.15-3.29-1.58-7.08-3.08-11-2.07a19.89,19.89,0,0,0-2.33.94,6.53,6.53,0,0,0-2.21,1.25c-1.12,1.2-1.14,2.92-1.32,4.43-.1.81,0,1.65-.2,2.46a16.83,16.83,0,0,0-.43,2.41,5.27,5.27,0,0,0,2.35,4.35A5.47,5.47,0,0,1,169,144a7.36,7.36,0,0,0,1.44,1.83,9.55,9.55,0,0,0,4.5,2.63,17.64,17.64,0,0,0,3.2.48,4.49,4.49,0,0,0,2.51-.77,10.07,10.07,0,0,1,2.59-1.21c.91-.22,2-.41,2.83-.71a15.38,15.38,0,0,0,2.46-1.26,9.22,9.22,0,0,0,2-1.31,12.76,12.76,0,0,0,1.34-2.11,8,8,0,0,0,.81-2.45c.45-1.79.38-4.34-1.07-5.66" transform="translate(-2.58 -12.84)"/><path class="cls-3" d="M191.74,133.56a7.93,7.93,0,0,0-3.78-3c-1.68-.62-3.48-1.34-5.16-2.15-3.29-1.58-7.08-3.08-11-2.07a19.89,19.89,0,0,0-2.33.94,6.53,6.53,0,0,0-2.21,1.25c-1.12,1.2-1.14,2.92-1.32,4.43-.1.81,0,1.65-.2,2.46a16.83,16.83,0,0,0-.43,2.41,5.27,5.27,0,0,0,2.35,4.35A5.47,5.47,0,0,1,169,144a7.36,7.36,0,0,0,1.44,1.83,9.55,9.55,0,0,0,4.5,2.63,17.64,17.64,0,0,0,3.2.48,4.49,4.49,0,0,0,2.51-.77,10.07,10.07,0,0,1,2.59-1.21c.91-.22,2-.41,2.83-.71a15.38,15.38,0,0,0,2.46-1.26,9.22,9.22,0,0,0,2-1.31,12.76,12.76,0,0,0,1.34-2.11,8,8,0,0,0,.81-2.45c.45-1.79.38-4.34-1.07-5.66" transform="translate(-2.58 -12.84)"/><path class="cls-1" d="M176.41,152.3c.14-2.3-1.92-2.78-3.61-4.14-.64-.52-1.39-.92-2-1.45a10.91,10.91,0,0,0-4.51-2.37,10.55,10.55,0,0,0-2.85-.4,11.08,11.08,0,0,1-3-.66c-2-.57-3.8-1.15-5.87-.29a4.61,4.61,0,0,0-2.32,1.42,5.47,5.47,0,0,0-1.06,2.13A5.76,5.76,0,0,0,151,149a15.61,15.61,0,0,0,.87,2.39,6.73,6.73,0,0,1,.88,2.07,13.4,13.4,0,0,0,.56,2.35,12.68,12.68,0,0,1,.7,2.74,5,5,0,0,0,.89,2.33,11.64,11.64,0,0,0,3.28,2.89,4.83,4.83,0,0,0,1.65,1.1,8.9,8.9,0,0,0,2.63.12c1,0,1.81-.39,2.75-.51a7.65,7.65,0,0,0,2-.45,11.22,11.22,0,0,0,3.63-2.22,32.38,32.38,0,0,0,4-4.56,8.61,8.61,0,0,0,1.59-4.93" transform="translate(-2.58 -12.84)"/><path class="cls-3" d="M176.41,152.3c.14-2.3-1.92-2.78-3.61-4.14-.64-.52-1.39-.92-2-1.45a10.91,10.91,0,0,0-4.51-2.37,10.55,10.55,0,0,0-2.85-.4,11.08,11.08,0,0,1-3-.66c-2-.57-3.8-1.15-5.87-.29a4.61,4.61,0,0,0-2.32,1.42,5.47,5.47,0,0,0-1.06,2.13A5.76,5.76,0,0,0,151,149a15.61,15.61,0,0,0,.87,2.39,6.73,6.73,0,0,1,.88,2.07,13.4,13.4,0,0,0,.56,2.35,12.68,12.68,0,0,1,.7,2.74,5,5,0,0,0,.89,2.33,11.64,11.64,0,0,0,3.28,2.89,4.83,4.83,0,0,0,1.65,1.1,8.9,8.9,0,0,0,2.63.12c1,0,1.81-.39,2.75-.51a7.65,7.65,0,0,0,2-.45,11.22,11.22,0,0,0,3.63-2.22,32.38,32.38,0,0,0,4-4.56A8.61,8.61,0,0,0,176.41,152.3Z" transform="translate(-2.58 -12.84)"/><path class="cls-1" d="M157.17,164.75a11.08,11.08,0,0,0-1.89-3.36c-.51-.53-.67-1.11-1.18-1.61s-.92-.89-1.41-1.39a8,8,0,0,0-1.42-1.3,19.47,19.47,0,0,1-1.92-1.37,17.35,17.35,0,0,1-2.27-2.52,6,6,0,0,0-4.72-2.15,3.54,3.54,0,0,0-2.47.78,4.18,4.18,0,0,0-1.64,1.71c-.35.8-.07,1.71-.5,2.5a5.25,5.25,0,0,0-.88,2.23c-.1,1.71-.19,3.35-.19,5.09a31.29,31.29,0,0,0,.3,6c.31,1.61.91,3.86,2.62,4.8a5.21,5.21,0,0,0,2.55.32,8.59,8.59,0,0,0,2.4-1c1.62-.64,3.52-.8,5.14-1.42.44-.17.85-.26,1.25-.43s.72-.46,1.14-.66c.95-.48,2-.64,2.91-1.2s2.23-.63,2.63-1.71a4.28,4.28,0,0,0-.19-2.71c-.08-.22-.16-.43-.26-.64" transform="translate(-2.58 -12.84)"/><path class="cls-3" d="M157.17,164.75a11.08,11.08,0,0,0-1.89-3.36c-.51-.53-.67-1.11-1.18-1.61s-.92-.89-1.41-1.39a8,8,0,0,0-1.42-1.3,19.47,19.47,0,0,1-1.92-1.37,17.35,17.35,0,0,1-2.27-2.52,6,6,0,0,0-4.72-2.15,3.54,3.54,0,0,0-2.47.78,4.18,4.18,0,0,0-1.64,1.71c-.35.8-.07,1.71-.5,2.5a5.25,5.25,0,0,0-.88,2.23c-.1,1.71-.19,3.35-.19,5.09a31.29,31.29,0,0,0,.3,6c.31,1.61.91,3.86,2.62,4.8a5.21,5.21,0,0,0,2.55.32,8.59,8.59,0,0,0,2.4-1c1.62-.64,3.52-.8,5.14-1.42.44-.17.85-.26,1.25-.43s.72-.46,1.14-.66c.95-.48,2-.64,2.91-1.2s2.23-.63,2.63-1.71a4.28,4.28,0,0,0-.19-2.71C157.35,165.17,157.27,165,157.17,164.75Z" transform="translate(-2.58 -12.84)"/><path class="cls-1" d="M121.38,177.17c-1,0-2,.13-2.73-.45a3.23,3.23,0,0,1-1.31-1.94c-.06-.87,0-1.77,0-2.64a5.8,5.8,0,0,1,.76-2.29,17,17,0,0,0,.69-4.77,18.51,18.51,0,0,1,.68-5,10.05,10.05,0,0,1,2.87-3.88,4.2,4.2,0,0,1,1.31-.86,7.54,7.54,0,0,1,1.58,0,6.29,6.29,0,0,1,2.84.26,6.05,6.05,0,0,1,3.66,3.68c.23.75.75,1.05,1.39,1.58,1.58,1.3,1.83,2.78,2.54,4.44a20.47,20.47,0,0,1,.67,2.24,31.29,31.29,0,0,0,1.27,4.36c.7,1.47-.25,2.87-2,3.5a19.92,19.92,0,0,1-2.09.24c-.7.17-1.35.48-2,.63-1.2.26-2.49.06-3.71.32-.49.1-.92.29-1.45.36a37,37,0,0,1-4.94.3" transform="translate(-2.58 -12.84)"/><path class="cls-3" d="M121.38,177.17c-1,0-2,.13-2.73-.45a3.23,3.23,0,0,1-1.31-1.94c-.06-.87,0-1.77,0-2.64a5.8,5.8,0,0,1,.76-2.29,17,17,0,0,0,.69-4.77,18.51,18.51,0,0,1,.68-5,10.05,10.05,0,0,1,2.87-3.88,4.2,4.2,0,0,1,1.31-.86,7.54,7.54,0,0,1,1.58,0,6.29,6.29,0,0,1,2.84.26,6.05,6.05,0,0,1,3.66,3.68c.23.75.75,1.05,1.39,1.58,1.58,1.3,1.83,2.78,2.54,4.44a20.47,20.47,0,0,1,.67,2.24,31.29,31.29,0,0,0,1.27,4.36c.7,1.47-.25,2.87-2,3.5a19.92,19.92,0,0,1-2.09.24c-.7.17-1.35.48-2,.63-1.2.26-2.49.06-3.71.32-.49.1-.92.29-1.45.36A37,37,0,0,1,121.38,177.17Z" transform="translate(-2.58 -12.84)"/><path class="cls-1" d="M194.65,20.59a3.5,3.5,0,0,1,.32-.81c3.54-4.29,9.33-5.85,15.69-6.13a39.26,39.26,0,0,1,10.56.63c4.07.89,7.6,2.82,8.71,6.35a23.12,23.12,0,0,1,1,5.51,21.23,21.23,0,0,1-2.1,10.69,11.21,11.21,0,0,1-2.61,3.61c-1.27,1.07-2.48,1.19-4.14,2-4.28,2.21-6.43,3.52-11.32,1.38-3-1.31-6.53-.41-9.61-1.72a11.33,11.33,0,0,1-5.69-5.31c-1.37-2.7-1-5.88-1-8.75,0-3.2-.78-5,.34-7.89" transform="translate(-2.58 -12.84)"/><path class="cls-3" d="M194.65,20.59a3.5,3.5,0,0,1,.32-.81c3.54-4.29,9.33-5.85,15.69-6.13a39.26,39.26,0,0,1,10.56.63c4.07.89,7.6,2.82,8.71,6.35a23.12,23.12,0,0,1,1,5.51,21.23,21.23,0,0,1-2.1,10.69,11.21,11.21,0,0,1-2.61,3.61c-1.27,1.07-2.48,1.19-4.14,2-4.28,2.21-6.43,3.52-11.32,1.38-3-1.31-6.53-.41-9.61-1.72a11.33,11.33,0,0,1-5.69-5.31c-1.37-2.7-1-5.88-1-8.75,0-3.2-.78-5,.34-7.89" transform="translate(-2.58 -12.84)"/><path class="cls-4" d="M204.64,46.34c.39,0,1.44.14,1.62.48s-.48,1-.59,1.39a10.18,10.18,0,0,0-.35,1.62c-.15,1.3-.18,2.58-.42,3.85a17.6,17.6,0,0,0-.69,3.25,9,9,0,0,0,.3,1.66,2.73,2.73,0,0,1,.05.9,1.91,1.91,0,0,1-.52.8c-.69.81-1.92,1.63-2.12,2.64-.11.57-.18,1.07-.34,1.62a11.12,11.12,0,0,0-.4,1.66,2.44,2.44,0,0,0,.25,1.72c.29.44.5.89.78,1.32" transform="translate(-2.58 -12.84)"/><path class="cls-5" d="M208.25,47.55c-.73-.09-1.25-.58-2-.66" transform="translate(-2.58 -12.84)"/><path class="cls-4" d="M220.51,19.05a5.78,5.78,0,0,1,1.46,2M222,35.35a2.79,2.79,0,0,1-2.14,3.14m-20.38-2c.08,1.14.12,2.6,1.69,2.84m-2.3-17.78c.88-.62,1.08-1.55,2-2.17m.59,9.4c2.92.1,7-2.21,9.34-.55,1.26.87,1.52,2,3.31,2.23,2.09.26,4.26-.6,6.28-.15s3.31,1.18,5.64.59M212.18,17.06a9.45,9.45,0,0,0,.91,3.25c.48,1.17.18,2.11-.11,3.37-1,4.43-2.64,8.72-3.56,13.19m-6,2.2c1.06.14,1.82-.77,2.74-1.09a5.56,5.56,0,0,1,2.86-.26c1.72.32,3.61,1.11,5.29,1.57M206.49,17c3-.55,5.28-1.43,8.16-.05a33.13,33.13,0,0,1,3.17,1.8c1.17.75,1.23,1.88,2,2.8M123.7,158.74c-.29.56-.8,1-1,1.62a5.9,5.9,0,0,0-.39,2.12c-.08,1.33-.06,2.85-.88,4m19.74-11.95c-.37.59-.85.9-1.07,1.56a15.55,15.55,0,0,0-.57,2.13,26.54,26.54,0,0,0-.12,4.47m24.75-15.06c-.41,0-.93-.57-1.31-.74a8.8,8.8,0,0,0-1.57-.61,17.05,17.05,0,0,0-3.95-.26m-22,25.6c0,.55-1.28,1.24-1.8,1.47a11,11,0,0,1-2.84.67c-1,.12-2.18.07-3.19.24s-2,.38-2.95.53c-1.85.28-4.84.43-6.08-1m53.33-23.26c0,1.75-.1,2.92-1.68,4.06s-1.86,2.5-2.4,4c-.42,1.18-.87,2.68-2.45,3.16-.78.24-1.61.2-2.42.39s-1.49.71-2.33.82m-5.14,3.84c-.21,1.56-2.53,2.15-4.07,2.44a16.4,16.4,0,0,0-5.56,1.68,7.35,7.35,0,0,1-3.28,1.23c-1,.05-2.63.37-3.26-.26m28.26-33a3,3,0,0,0-.37,1.67m5.51-11.12a5.05,5.05,0,0,0-2.82,2m11.53,10.33a5.5,5.5,0,0,0,2.87-2.76,9.58,9.58,0,0,0,.89-4.09m-14.41,3.16a7.52,7.52,0,0,1,3.26,1.15m2.94-8.68c1.24.24,2.49.71,2.7,1.82m4.57-1.4a6.09,6.09,0,0,1-2.5,1.26,5.28,5.28,0,0,1-1.38.19c-.83,0-.78.07-1.11.68a16.65,16.65,0,0,1-3,3.84c-.88.86-2,1.78-1.93,3a5.22,5.22,0,0,0,.56,1.77c.22.52.25,1.28.63,1.71M185,108.27a5,5,0,0,0-3.76,1.56m-3.07,8.72c0,.47-.52.86-.8,1.26a2.35,2.35,0,0,0-.45,1.49m17-1.5c0-.94.92-1.6,1.32-2.45a4.74,4.74,0,0,0,.18-3.11m-6.58,9a3.47,3.47,0,0,0-1.92-.89,6.3,6.3,0,0,0-1.21-.3c-.48,0-.51.18-.94.37a16.72,16.72,0,0,1-2.69.62,14.14,14.14,0,0,1-2.7.1m2.13-9.55c.59,0,1.13.22,1.76.25a7.41,7.41,0,0,0,1.69-.31m7.21,1.51a3.05,3.05,0,0,1-2.51.16c-.82-.35-1.54-.8-2.31-1.21-.56-.3-1.57-1-2.26-.56s-.55,1.62-.65,2.22a14.38,14.38,0,0,0-.23,2.19,7.29,7.29,0,0,0,1.06,3.9m6.29-46.64c-2.09,0-3.49.51-3.51,2.38m-5.85,24.16a2.86,2.86,0,0,1-2-.56,5.77,5.77,0,0,1-1.42-1.41m25.44-.88c.12,2.49-.92,4.92-3.95,5.71M210.11,84c.45.29.47.9.7,1.29a3.28,3.28,0,0,1,.67,1.56,5.27,5.27,0,0,1-.25,3m-4,5.92c-2-.92-4.62,0-6.51-1.09-.89-.48-1.72-1-2.62-1.46s-1.66-1.33-2.57-1.5-1.44.24-2.2.16a18.16,18.16,0,0,1-2.26-.78,18.06,18.06,0,0,0-2.76-.1c-1.05-.08-2.14-.43-3.13-.58M195.44,104a3.35,3.35,0,0,0-1.14-2,11.22,11.22,0,0,0-1.53-1.62c-1.52-1.15-3.54.08-4.78,1-.56.41-1.34,1-1.26,1.66m10.91-23.93c.16.59.55,1,.44,1.71s-.45,1.09-.56,1.66A2.18,2.18,0,0,0,198.89,85M204,83.5a6,6,0,0,0-3,1.1c-.46.24-1,.29-1.47.51a9,9,0,0,0-1.49,1,31.38,31.38,0,0,1-3.25,2.27c-.76.42-1.78.83-1.26,1.63a3.21,3.21,0,0,1,.76,2.33,27.4,27.4,0,0,1-.68,4.1,5.7,5.7,0,0,1-.93,1.56,2.79,2.79,0,0,0-.33,1.66m-4.24-32c-.74-.13-.9-1-1-1.49-.09-.31-.28-1.58.13-1.73M199.93,46a4.79,4.79,0,0,0-2.5-.17c-.65.14-2.42.57-2.42,1.31m17.21,21a11.17,11.17,0,0,1-1.55,1.77c-.34.26-2.14.75-2.26.07m4.72-20.12c.5.72.29,1.54.46,2.36a4.52,4.52,0,0,1,0,2.28m-1.34,8.1a4.74,4.74,0,0,1-3.38-1.89,10.68,10.68,0,0,0-3-2.25,16.71,16.71,0,0,0-4.58-1.36,18.14,18.14,0,0,0-2.22-.11,17.31,17.31,0,0,1-2.34-.38,15.45,15.45,0,0,1-3.34-.76M204.7,71c-.78-.46-1.69-1.77-2.83-1.43a13.67,13.67,0,0,1-4.27.84" transform="translate(-2.58 -12.84)"/></svg>