<svg id="Ebene_1" data-name="Ebene 1" xmlns="http://www.w3.org/2000/svg" viewBox="0 0 228.77 175.62"><defs><style>.cls-1{fill:#fff;}.cls-2,.cls-3{fill:none;stroke-miterlimit:10;}.cls-2{stroke:#1d1d1b;stroke-width:0.92px;}.cls-3{stroke:#b1b1b1;stroke-linecap:round;stroke-width:0.61px;}</style></defs><path class="cls-1" d="M26.76,119.47a26.09,26.09,0,0,1,4.55,2.18,14.08,14.08,0,0,1,3.86,2.72c2.42,2.5,6.39,2.07,8.32,5.21,1,1.59,1.14,3.33,1.77,5a13.74,13.74,0,0,1,.83,5.57c-.1,2-1.36,3.22-2.37,4.9-.88,1.48-2.57,2.27-3.43,3.67-1,1.61-1.81,3.34-3.8,4.12a11.53,11.53,0,0,1-5.79.79c-2-.28-4.26-.52-6-1.59s-3.71-.47-5.48-1.67a11.64,11.64,0,0,0-2-1.29c-1.78-.72-3.35-.85-4.92-2a10.17,10.17,0,0,1-3.93-9.11,15.7,15.7,0,0,1,.91-5,22.93,22.93,0,0,0,1.88-6A6.28,6.28,0,0,1,12.86,123a10.91,10.91,0,0,1,1.72-1.14c.61-.39,1-1,1.65-1.4,2.77-1.85,7.36-1.79,10.53-1" transform="translate(-3.24 -3.51)"/><path class="cls-2" d="M26.76,119.47a26.09,26.09,0,0,1,4.55,2.18,14.08,14.08,0,0,1,3.86,2.72c2.42,2.5,6.39,2.07,8.32,5.21,1,1.59,1.14,3.33,1.77,5a13.74,13.74,0,0,1,.83,5.57c-.1,2-1.36,3.22-2.37,4.9-.88,1.48-2.57,2.27-3.43,3.67-1,1.61-1.81,3.34-3.8,4.12a11.53,11.53,0,0,1-5.79.79c-2-.28-4.26-.52-6-1.59s-3.71-.47-5.48-1.67a11.64,11.64,0,0,0-2-1.29c-1.78-.72-3.35-.85-4.92-2a10.17,10.17,0,0,1-3.93-9.11,15.7,15.7,0,0,1,.91-5,22.93,22.93,0,0,0,1.88-6A6.28,6.28,0,0,1,12.86,123a10.91,10.91,0,0,1,1.72-1.14c.61-.39,1-1,1.65-1.4C19,118.61,23.59,118.67,26.76,119.47Z" transform="translate(-3.24 -3.51)"/><path class="cls-1" d="M37.08,88.34a36.11,36.11,0,0,1,9.8,4c2.77,1.84,6.24,3.19,8.82,5.3,2.95,2.41,3.48,5.51,2.92,9a19.43,19.43,0,0,1-1,4.82,12.57,12.57,0,0,0-1,2.2c-.18.91,0,1.89-.19,2.79-.35,1.66-1.45,2.76-2.36,4.15a6.79,6.79,0,0,1-3.54,3c-1.83.49-4.3.07-6.19.31a13.17,13.17,0,0,1-6.27-.31,16.22,16.22,0,0,1-4.83-2c-1.38-1-3.22-1.36-4.68-2.17s-3.82-1.14-5.09-2.37c-3.33-3.24-3.61-6.84-4.12-11.06a45,45,0,0,1-.15-8.84c.2-2.43,2-4.4,4-5.92A35.28,35.28,0,0,1,26.28,89c2.91-1.72,7.65-1.57,10.8-.63" transform="translate(-3.24 -3.51)"/><path class="cls-2" d="M37.08,88.34a36.11,36.11,0,0,1,9.8,4c2.77,1.84,6.24,3.19,8.82,5.3,2.95,2.41,3.48,5.51,2.92,9a19.43,19.43,0,0,1-1,4.82,12.57,12.57,0,0,0-1,2.2c-.18.91,0,1.89-.19,2.79-.35,1.66-1.45,2.76-2.36,4.15a6.79,6.79,0,0,1-3.54,3c-1.83.49-4.3.07-6.19.31a13.17,13.17,0,0,1-6.27-.31,16.22,16.22,0,0,1-4.83-2c-1.38-1-3.22-1.36-4.68-2.17s-3.82-1.14-5.09-2.37c-3.33-3.24-3.61-6.84-4.12-11.06a45,45,0,0,1-.15-8.84c.2-2.43,2-4.4,4-5.92A35.28,35.28,0,0,1,26.28,89C29.19,87.25,33.93,87.4,37.08,88.34Z" transform="translate(-3.24 -3.51)"/><path class="cls-1" d="M32,69.6A7.87,7.87,0,0,0,29.16,73a13.51,13.51,0,0,0-1,5.31A8.13,8.13,0,0,0,30,83.05c.91,1.24,1.43,2.7,2.74,3.67a5.63,5.63,0,0,0,3.18.71c1.18.09,2.29.43,3.49.55a75,75,0,0,0,8.35,0c4.51,0,8.35,0,11.17-3.65a10.15,10.15,0,0,0,1.74-6,4.71,4.71,0,0,0-1.3-3.21c-.4-.48-.83-.91-1.2-1.41a3.29,3.29,0,0,0-1.53-.9c-.68-.26-1.38-.48-2.07-.73s-1.62-.63-2.42-1c-1.58-.68-3.13-1.44-4.63-2.27-3.52-1.94-7-3.3-11.14-1.64A13.33,13.33,0,0,0,32,69.6" transform="translate(-3.24 -3.51)"/><path class="cls-2" d="M32,69.6A7.87,7.87,0,0,0,29.16,73a13.51,13.51,0,0,0-1,5.31A8.13,8.13,0,0,0,30,83.05c.91,1.24,1.43,2.7,2.74,3.67a5.63,5.63,0,0,0,3.18.71c1.18.09,2.29.43,3.49.55a75,75,0,0,0,8.35,0c4.51,0,8.35,0,11.17-3.65a10.15,10.15,0,0,0,1.74-6,4.71,4.71,0,0,0-1.3-3.21c-.4-.48-.83-.91-1.2-1.41a3.29,3.29,0,0,0-1.53-.9c-.68-.26-1.38-.48-2.07-.73s-1.62-.63-2.42-1c-1.58-.68-3.13-1.44-4.63-2.27-3.52-1.94-7-3.3-11.14-1.64A13.33,13.33,0,0,0,32,69.6" transform="translate(-3.24 -3.51)"/><path class="cls-1" d="M55.86,48.55C52.67,46.68,48.72,45,45,46.43c-2.94,1.13-6.14,3.4-6.77,6.55-.73,3.6-1.13,7.26.88,10.55,1.82,3,5.6,3,8.62,4,2,.68,4.29.59,6.38.77A20.05,20.05,0,0,0,60.86,68c4.26-.91,6.22-3.61,7.32-7.35,1-3.44-.89-6.56-4.24-7.91a64,64,0,0,1-8.08-4.2" transform="translate(-3.24 -3.51)"/><path class="cls-2" d="M55.86,48.55C52.67,46.68,48.72,45,45,46.43c-2.94,1.13-6.14,3.4-6.77,6.55-.73,3.6-1.13,7.26.88,10.55,1.82,3,5.6,3,8.62,4,2,.68,4.29.59,6.38.77A20.05,20.05,0,0,0,60.86,68c4.26-.91,6.22-3.61,7.32-7.35,1-3.44-.89-6.56-4.24-7.91A64,64,0,0,1,55.86,48.55Z" transform="translate(-3.24 -3.51)"/><path class="cls-1" d="M62.13,23.77a10.47,10.47,0,0,0-7.35,1.87,9.44,9.44,0,0,0-1.63,1.14,16.42,16.42,0,0,0-3.08,5.46c-.7,1.77-.51,3.41-.71,5.34-.16,1.69-.84,3.45-.23,5.23s1.59,2.21,3.19,3,2.73,1.76,4.48,2c4.08.63,8.52-.14,12.7-.14,2.06,0,4.43.75,6.39.23s2-2.8,1.78-4.34c-.53-3.34-3.17-6.43-4.52-9.67-2.18-5.2-4.51-9.61-11-10.16" transform="translate(-3.24 -3.51)"/><path class="cls-2" d="M62.13,23.77a10.47,10.47,0,0,0-7.35,1.87,9.44,9.44,0,0,0-1.63,1.14,16.42,16.42,0,0,0-3.08,5.46c-.7,1.77-.51,3.41-.71,5.34-.16,1.69-.84,3.45-.23,5.23s1.59,2.21,3.19,3,2.73,1.76,4.48,2c4.08.63,8.52-.14,12.7-.14,2.06,0,4.43.75,6.39.23s2-2.8,1.78-4.34c-.53-3.34-3.17-6.43-4.52-9.67C71,28.73,68.64,24.32,62.13,23.77Z" transform="translate(-3.24 -3.51)"/><path class="cls-1" d="M81.7,12a12,12,0,0,1,3.41.15A8.26,8.26,0,0,1,87,13.27c1.46.94,2,2.34,2.94,3.69,2,2.83.3,6.8-.83,9.68C88.6,28,88.06,30,86.63,30.86A11.36,11.36,0,0,1,81,32c-4.3,0-6.63-1.77-9.88-3.87-2.4-1.54-5.62-4.83-4-7.93a11.63,11.63,0,0,1,6.18-5.52C76,13.67,78.71,12,81.7,12" transform="translate(-3.24 -3.51)"/><path class="cls-2" d="M81.7,12a12,12,0,0,1,3.41.15A8.26,8.26,0,0,1,87,13.27c1.46.94,2,2.34,2.94,3.69,2,2.83.3,6.8-.83,9.68C88.6,28,88.06,30,86.63,30.86A11.36,11.36,0,0,1,81,32c-4.3,0-6.63-1.77-9.88-3.87-2.4-1.54-5.62-4.83-4-7.93a11.63,11.63,0,0,1,6.18-5.52C76,13.67,78.71,12,81.7,12Z" transform="translate(-3.24 -3.51)"/><path class="cls-1" d="M105.57,4.48a48.41,48.41,0,0,1,6.16-.33,6.32,6.32,0,0,1,6.4,6.46,28.54,28.54,0,0,1-.59,5.34,6.29,6.29,0,0,1-2.64,3.77c-2.48,2.07-4.24,4.93-6.84,6.79-1.31.92-2.61,2.19-4.39,2a10.65,10.65,0,0,1-4.49-1.77,23.9,23.9,0,0,1-4.12-3.13c-1-1.09-1.55-2.47-2.79-3.53-1.51-1.3-1.42-2.67-2-4.37-.48-1.45-1.33-3.37-.94-5,.26-1.11,2.29-2.36,3.23-3.1a12.24,12.24,0,0,1,4.61-1.73,32.51,32.51,0,0,1,4.43-1.18c1.3-.13,2.65-.06,4-.23" transform="translate(-3.24 -3.51)"/><path class="cls-2" d="M105.57,4.48a48.41,48.41,0,0,1,6.16-.33,6.32,6.32,0,0,1,6.4,6.46,28.54,28.54,0,0,1-.59,5.34,6.29,6.29,0,0,1-2.64,3.77c-2.48,2.07-4.24,4.93-6.84,6.79-1.31.92-2.61,2.19-4.39,2a10.65,10.65,0,0,1-4.49-1.77,23.9,23.9,0,0,1-4.12-3.13c-1-1.09-1.55-2.47-2.79-3.53-1.51-1.3-1.42-2.67-2-4.37-.48-1.45-1.33-3.37-.94-5,.26-1.11,2.29-2.36,3.23-3.1a12.24,12.24,0,0,1,4.61-1.73,32.51,32.51,0,0,1,4.43-1.18C102.91,4.58,104.26,4.65,105.57,4.48Z" transform="translate(-3.24 -3.51)"/><path class="cls-1" d="M26.27,154.27c-3.33-1.83-5.49-3.62-9.53-4s-7.21.12-10.19,2.68c-3.27,2.81-2.83,5.28-2.84,9.35A20.64,20.64,0,0,0,6,171.93c1.78,3.34,4.29,3.93,7.6,5.11,3.52,1.26,6.88.23,10.52.57,1.57.15,4.25,1.06,5.88.45,1.27-.47,2.41-2.11,3.3-2.86a17.82,17.82,0,0,0,5.88-8.5c.91-3.28-1.32-6.71-3.41-9.18a2.25,2.25,0,0,0-1-.65c-2.69-1.32-5.89-1.14-8.55-2.6" transform="translate(-3.24 -3.51)"/><path class="cls-2" d="M26.27,154.27c-3.33-1.83-5.49-3.62-9.53-4s-7.21.12-10.19,2.68c-3.27,2.81-2.83,5.28-2.84,9.35A20.64,20.64,0,0,0,6,171.93c1.78,3.34,4.29,3.93,7.6,5.11,3.52,1.26,6.88.23,10.52.57,1.57.15,4.25,1.06,5.88.45,1.27-.47,2.41-2.11,3.3-2.86a17.82,17.82,0,0,0,5.88-8.5c.91-3.28-1.32-6.71-3.41-9.18a2.25,2.25,0,0,0-1-.65C32.13,155.55,28.93,155.73,26.27,154.27Z" transform="translate(-3.24 -3.51)"/><path class="cls-1" d="M209.75,119.29a26.06,26.06,0,0,0-4.55,2.18,13.87,13.87,0,0,0-3.86,2.72c-2.42,2.49-6.39,2.07-8.32,5.2-1,1.59-1.14,3.34-1.76,5a13.8,13.8,0,0,0-.84,5.57c.1,2,1.36,3.23,2.37,4.9.89,1.49,2.57,2.28,3.43,3.68,1,1.61,1.81,3.34,3.8,4.12a11.64,11.64,0,0,0,5.79.79c2-.29,4.26-.52,6-1.6s3.71-.46,5.48-1.67a11.58,11.58,0,0,1,2-1.28c1.78-.73,3.35-.86,4.92-2.06a10.18,10.18,0,0,0,3.94-9.11,15.7,15.7,0,0,0-.92-5,23,23,0,0,1-1.88-6,6.26,6.26,0,0,0-1.75-3.91,10.91,10.91,0,0,0-1.72-1.14c-.61-.4-1-1-1.65-1.4-2.76-1.85-7.35-1.79-10.53-1" transform="translate(-3.24 -3.51)"/><path class="cls-2" d="M209.75,119.29a26.06,26.06,0,0,0-4.55,2.18,13.87,13.87,0,0,0-3.86,2.72c-2.42,2.49-6.39,2.07-8.32,5.2-1,1.59-1.14,3.34-1.76,5a13.8,13.8,0,0,0-.84,5.57c.1,2,1.36,3.23,2.37,4.9.89,1.49,2.57,2.28,3.43,3.68,1,1.61,1.81,3.34,3.8,4.12a11.64,11.64,0,0,0,5.79.79c2-.29,4.26-.52,6-1.6s3.71-.46,5.48-1.67a11.58,11.58,0,0,1,2-1.28c1.78-.73,3.35-.86,4.92-2.06a10.18,10.18,0,0,0,3.94-9.11,15.7,15.7,0,0,0-.92-5,23,23,0,0,1-1.88-6,6.26,6.26,0,0,0-1.75-3.91,10.91,10.91,0,0,0-1.72-1.14c-.61-.4-1-1-1.65-1.4C217.52,118.43,212.93,118.49,209.75,119.29Z" transform="translate(-3.24 -3.51)"/><path class="cls-1" d="M199.43,88.16a36.11,36.11,0,0,0-9.8,4c-2.77,1.84-6.24,3.19-8.81,5.3-3,2.41-3.49,5.51-2.93,9a19.53,19.53,0,0,0,1,4.82,11.88,11.88,0,0,1,1,2.2c.18.9,0,1.88.2,2.79.34,1.66,1.44,2.76,2.35,4.15a6.73,6.73,0,0,0,3.54,3c1.84.5,4.3.07,6.19.31a13.22,13.22,0,0,0,6.28-.31,16.25,16.25,0,0,0,4.82-1.94c1.39-1,3.23-1.37,4.68-2.18s3.82-1.14,5.09-2.37c3.33-3.23,3.61-6.84,4.12-11.06a44.92,44.92,0,0,0,.15-8.83c-.2-2.44-2-4.4-4-5.92a38.44,38.44,0,0,0-3.14-2.4c-2.92-1.73-7.66-1.57-10.81-.63" transform="translate(-3.24 -3.51)"/><path class="cls-2" d="M199.43,88.16a36.11,36.11,0,0,0-9.8,4c-2.77,1.84-6.24,3.19-8.81,5.3-3,2.41-3.49,5.51-2.93,9a19.53,19.53,0,0,0,1,4.82,11.88,11.88,0,0,1,1,2.2c.18.9,0,1.88.2,2.79.34,1.66,1.44,2.76,2.35,4.15a6.73,6.73,0,0,0,3.54,3c1.84.5,4.3.07,6.19.31a13.22,13.22,0,0,0,6.28-.31,16.25,16.25,0,0,0,4.82-1.94c1.39-1,3.23-1.37,4.68-2.18s3.82-1.14,5.09-2.37c3.33-3.23,3.61-6.84,4.12-11.06a44.92,44.92,0,0,0,.15-8.83c-.2-2.44-2-4.4-4-5.92a38.44,38.44,0,0,0-3.14-2.4C207.32,87.06,202.58,87.22,199.43,88.16Z" transform="translate(-3.24 -3.51)"/><path class="cls-1" d="M204.53,69.42a7.84,7.84,0,0,1,2.82,3.36,13.56,13.56,0,0,1,1,5.32,8.16,8.16,0,0,1-1.78,4.77c-.91,1.24-1.43,2.7-2.74,3.66a5.47,5.47,0,0,1-3.18.71c-1.18.09-2.29.44-3.48.56a77.71,77.71,0,0,1-8.36,0c-4.51-.05-8.35,0-11.17-3.65a10.19,10.19,0,0,1-1.74-6c-.1-3.17,3-6.33,6.26-7.09,1.06-.25,2-.14,3-.45a21,21,0,0,0,3.88-2c3.52-2,7-3.31,11.14-1.64a13,13,0,0,1,4.37,2.45" transform="translate(-3.24 -3.51)"/><path class="cls-2" d="M204.53,69.42a7.84,7.84,0,0,1,2.82,3.36,13.56,13.56,0,0,1,1,5.32,8.16,8.16,0,0,1-1.78,4.77c-.91,1.24-1.43,2.7-2.74,3.66a5.47,5.47,0,0,1-3.18.71c-1.18.09-2.29.44-3.48.56a77.71,77.71,0,0,1-8.36,0c-4.51-.05-8.35,0-11.17-3.65a10.19,10.19,0,0,1-1.74-6c-.1-3.17,3-6.33,6.26-7.09,1.06-.25,2-.14,3-.45a21,21,0,0,0,3.88-2c3.52-2,7-3.31,11.14-1.64a13,13,0,0,1,4.37,2.45" transform="translate(-3.24 -3.51)"/><path class="cls-1" d="M180.65,48.37c3.19-1.87,7.15-3.56,10.87-2.12,2.95,1.13,6.14,3.39,6.78,6.55.73,3.6,1.12,7.25-.89,10.55-1.82,3-5.6,3-8.61,4-2,.69-4.29.6-6.39.78a20.31,20.31,0,0,1-6.76-.33c-4.26-.91-6.22-3.61-7.32-7.36-1-3.43.89-6.56,4.24-7.9a64,64,0,0,0,8.08-4.2" transform="translate(-3.24 -3.51)"/><path class="cls-2" d="M180.65,48.37c3.19-1.87,7.15-3.56,10.87-2.12,2.95,1.13,6.14,3.39,6.78,6.55.73,3.6,1.12,7.25-.89,10.55-1.82,3-5.6,3-8.61,4-2,.69-4.29.6-6.39.78a20.31,20.31,0,0,1-6.76-.33c-4.26-.91-6.22-3.61-7.32-7.36-1-3.43.89-6.56,4.24-7.9A64,64,0,0,0,180.65,48.37Z" transform="translate(-3.24 -3.51)"/><path class="cls-1" d="M174.38,23.59a10.42,10.42,0,0,1,7.35,1.87,9.44,9.44,0,0,1,1.63,1.14,16.42,16.42,0,0,1,3.08,5.46c.7,1.77.52,3.41.71,5.34.16,1.68.84,3.45.23,5.23s-1.59,2.21-3.19,3-2.73,1.76-4.48,2c-4.08.63-8.51-.14-12.7-.14-2.06,0-4.43.74-6.39.22s-2-2.79-1.78-4.33c.53-3.35,3.17-6.43,4.53-9.67,2.17-5.2,4.5-9.61,11-10.16" transform="translate(-3.24 -3.51)"/><path class="cls-2" d="M174.38,23.59a10.42,10.42,0,0,1,7.35,1.87,9.44,9.44,0,0,1,1.63,1.14,16.42,16.42,0,0,1,3.08,5.46c.7,1.77.52,3.41.71,5.34.16,1.68.84,3.45.23,5.23s-1.59,2.21-3.19,3-2.73,1.76-4.48,2c-4.08.63-8.51-.14-12.7-.14-2.06,0-4.43.74-6.39.22s-2-2.79-1.78-4.33c.53-3.35,3.17-6.43,4.53-9.67C165.54,28.55,167.87,24.14,174.38,23.59Z" transform="translate(-3.24 -3.51)"/><path class="cls-1" d="M154.81,11.77a12.44,12.44,0,0,0-3.41.14,8.29,8.29,0,0,0-1.92,1.18c-1.46.93-2,2.33-2.94,3.69-2,2.82-.3,6.79.83,9.68.54,1.38,1.08,3.38,2.51,4.21a11.26,11.26,0,0,0,5.64,1.14c4.3,0,6.63-1.78,9.89-3.87,2.39-1.55,5.61-4.83,4-7.94a11.67,11.67,0,0,0-6.18-5.52c-2.7-1-5.43-2.68-8.42-2.71" transform="translate(-3.24 -3.51)"/><path class="cls-2" d="M154.81,11.77a12.44,12.44,0,0,0-3.41.14,8.29,8.29,0,0,0-1.92,1.18c-1.46.93-2,2.33-2.94,3.69-2,2.82-.3,6.79.83,9.68.54,1.38,1.08,3.38,2.51,4.21a11.26,11.26,0,0,0,5.64,1.14c4.3,0,6.63-1.78,9.89-3.87,2.39-1.55,5.61-4.83,4-7.94a11.67,11.67,0,0,0-6.18-5.52C160.53,13.49,157.8,11.8,154.81,11.77Z" transform="translate(-3.24 -3.51)"/><path class="cls-1" d="M131,4.3A48.66,48.66,0,0,0,124.78,4a6.31,6.31,0,0,0-6.39,6.45,27.06,27.06,0,0,0,.59,5.35,6.21,6.21,0,0,0,2.63,3.76c2.48,2.07,4.24,4.94,6.85,6.79,1.3.93,2.6,2.2,4.38,2a10.62,10.62,0,0,0,4.5-1.78,24.69,24.69,0,0,0,4.11-3.12c1-1.1,1.55-2.47,2.79-3.53,1.51-1.31,1.42-2.68,2-4.37.48-1.46,1.33-3.37.94-5-.26-1.11-2.29-2.35-3.23-3.09a12.24,12.24,0,0,0-4.61-1.73,31.15,31.15,0,0,0-4.43-1.19c-1.3-.12-2.65,0-4-.22" transform="translate(-3.24 -3.51)"/><path class="cls-2" d="M131,4.3A48.66,48.66,0,0,0,124.78,4a6.31,6.31,0,0,0-6.39,6.45,27.06,27.06,0,0,0,.59,5.35,6.21,6.21,0,0,0,2.63,3.76c2.48,2.07,4.24,4.94,6.85,6.79,1.3.93,2.6,2.2,4.38,2a10.62,10.62,0,0,0,4.5-1.78,24.69,24.69,0,0,0,4.11-3.12c1-1.1,1.55-2.47,2.79-3.53,1.51-1.31,1.42-2.68,2-4.37.48-1.46,1.33-3.37.94-5-.26-1.11-2.29-2.35-3.23-3.09a12.24,12.24,0,0,0-4.61-1.73,31.15,31.15,0,0,0-4.43-1.19C133.6,4.4,132.25,4.47,131,4.3Z" transform="translate(-3.24 -3.51)"/><path class="cls-1" d="M209,154.68c3.33-1.84,5.49-3.62,9.53-4s7.2.11,10.18,2.67c3.28,2.82,2.84,5.28,2.85,9.36a20.59,20.59,0,0,1-2.31,9.64c-1.77,3.33-4.28,3.93-7.59,5.11-3.52,1.25-6.88.22-10.52.57-1.57.15-4.25,1-5.88.45-1.27-.48-2.41-2.11-3.3-2.86a17.85,17.85,0,0,1-5.88-8.51c-.91-3.28,1.32-6.7,3.41-9.18a2.23,2.23,0,0,1,1-.64c2.69-1.32,5.89-1.14,8.55-2.6" transform="translate(-3.24 -3.51)"/><path class="cls-2" d="M209,154.68c3.33-1.84,5.49-3.62,9.53-4s7.2.11,10.18,2.67c3.28,2.82,2.84,5.28,2.85,9.36a20.59,20.59,0,0,1-2.31,9.64c-1.77,3.33-4.28,3.93-7.59,5.11-3.52,1.25-6.88.22-10.52.57-1.57.15-4.25,1-5.88.45-1.27-.48-2.41-2.11-3.3-2.86a17.85,17.85,0,0,1-5.88-8.51c-.91-3.28,1.32-6.7,3.41-9.18a2.23,2.23,0,0,1,1-.64C203.12,156,206.32,156.14,209,154.68Z" transform="translate(-3.24 -3.51)"/><path class="cls-3" d="M205.27,176.06a2.69,2.69,0,0,0,1.89,1.79M226.33,166c.5,2.16-2.23,2.64-2.61,4.91m-15.38-14.28c-2.55,2-3.92,2.8-3.55,6.47a12,12,0,0,0,3.55,6.69m12.54-18.06c3.28,1.1,4.13,3.07,4.26,6.24M215,162.69c2.43.49,4.25,1.34,7.1,1.33,2,0,6-.72,7.1.9m-22.95,8.2c2-.09,4.36-.48,6,.57,1.25.79,1.15,1.69,2.22,2.72m-1.88-22c1.29,2.21.56,5,1.64,7.37s1.5,4,.19,6.61a15.25,15.25,0,0,0-1.53,5.79M122.08,15.89a4.83,4.83,0,0,0,2,1.12c.66.29.54-.09,1,.55.2.3.14,1,.22,1.34.41,1.77,1.57,3,2.14,4.68m39.75,7a10.15,10.15,0,0,0,0,1.56c.07.46.42.88.44,1.34,0,.8-1,2-1.48,2.57a9.78,9.78,0,0,0-2.51,4.78m-15-22.52a11.06,11.06,0,0,0,1.8,1.76c.74.75.39,1.28.21,2.37a35.31,35.31,0,0,0-.35,5.57m-6.86-15.38c-1.48-1.73-3.18-1.16-5.32-1.48-.9-.13-1.75-.65-2.61-.86a19.45,19.45,0,0,1-2.6-.67,21.42,21.42,0,0,0-5.59-1c-1.82-.17-4.41-1-5.73.48A9.69,9.69,0,0,0,120,11.21m46.84,11.7c.19-1.27-2.87-1.83-3.78-2.36-1.46-.87-2.27-2.31-4-2.66s-3.2-.32-4.74-1.41c-1-.73-3.33-2.43-4.49-1M184.42,41.2a4,4,0,0,0-.45-2.48c-.33-.53-.94-1.08-1.33-1.65a10.84,10.84,0,0,1-2.12-4.35c-.34-2-1.58-2.63-3.55-3s-3.23-1.46-5-1.79a8.92,8.92,0,0,0-1.65-.11m11.71,26.42c-1.56,0-3.31-2.09-5-1.11m14.2,11.71a11.62,11.62,0,0,0-4.29.52,7.16,7.16,0,0,0-1.89.9,10.28,10.28,0,0,1-1.51,1m.95-17.62c-.23,1.69-2.85,1.71-2.6,3.63s1.93,3.61,2.35,5.52c.27,1.18,0,2.51.27,3.65a13.42,13.42,0,0,1,.8,3.26m-1.18,9.14c-.29.56-1.08,1-1.4,1.55a5,5,0,0,0-.37,2c-.07,1.24-.18,2.78.59,3.79m15.73-11.49c2.3.47,3.09,1.8,3.19,4,.1,2,1.42,3.23,1.43,5.24M173.89,56.58C171,58.19,175,62.85,177,63.39m11.94-13.16c.21,2,3.32,2.18,4.23,3.71,1.07,1.77.28,4.1,1.21,5.88M190,72.08c.08.62.74,1.09,1,1.66a4.61,4.61,0,0,1,.3,1.8c0,1.21-.29,2.43.22,3.59s1.25,1.69.85,3.1c-.31,1.08-1.45,2-1.42,3.12m6.87-1c-1.71.37-3.13,1.18-4.85,1.33-2,.19-3-1-4.85.12m6-16.28a6.83,6.83,0,0,0-3.91,2.12c-1.43,1.31-1.93.16-3.66,0m3.9,42.92c-.65,1.86.48,2.62,2,3.46m1.19-21.3c-.66,1.79-2.83,2.47-4.06,3.79-2,2.12-.27,3.52.74,5.47m22.72,2.45c0,1.28.27,2.32-.83,3.12m-4.14-20a5.68,5.68,0,0,1,2.46.91c.2.67.68,1.3.85,2m-12.3,18a41.57,41.57,0,0,1-4.52-.58c-.78-.07-1.62,0-2.44-.09a22.45,22.45,0,0,1-2.39-.44m24.37-11c-1,.93-1.37,2-2.72,2.37a16.93,16.93,0,0,1-4.62.19,5.91,5.91,0,0,0-2.16.11c-.37.18-.71.87-1,1.21a3.44,3.44,0,0,1-2.6,1.25m.59-11.82a10,10,0,0,1-2.37,4.68c-.7.83-.85.87-.47,1.9a12.81,12.81,0,0,0,.92,1.9,11.07,11.07,0,0,1,.48,8.78,5.93,5.93,0,0,0-1.29,2c-.28,1,.34,1.06.75,1.9.82,1.67-.09,3.31-.74,4.69M206.54,152c-2-.11-2.85-1.14-3.67-2.79m19.4-11.93c1.21,1,.52,3,0,4.13m-13.48-16.84c.34-2.63,4.16-4.27,6.62-3.23m-14.79,9c-2,1.14-1.91,3.44-1.41,5.35a10.6,10.6,0,0,0,1,2.46c.42.75,1.2,1.25,1.45,2m18.69,7.14a6,6,0,0,1-3.2-.56,11,11,0,0,0-2.11-1.23c-1-.23-2,.48-3.09.23-.39-.08-.74-.44-1.06-.54a6.34,6.34,0,0,0-2.13,0,20.46,20.46,0,0,0-3,.25c-.75.15-1.55.65-2.3.76-2.15.3-4.23-.42-6.25-.56h-.11m13.36-1c0-1.82,0-3.64,0-5.46a2.83,2.83,0,0,1,.71-2.23c.62-.67,1.26-.68,1.07-1.78m10.05-2c-1.25,1-2.85,1-4.49,1.11-1.79.17-3.83.34-5.61.38-2.11.05-4.36-1.48-6.22-2.27M30,175.07a2.69,2.69,0,0,1-1.89,1.79M8.92,165.63c-.5,2.16,2.23,2.64,2.6,4.9M26.9,156.26c2.56,2,3.93,2.79,3.56,6.47-.27,2.62-1.87,4.87-3.56,6.69M12.49,152.53c1.91-.64-4.33,7.95-4.26,6.24m12.05,3.51c-2.44.49-4.25,1.35-7.1,1.34-1.95,0-5.95-.72-7.1.89m23,8.21c-2-.1-4.36-.48-6,.57-1.25.78-1.15,1.69-2.22,2.71m1.88-22c-1.29,2.22-.56,5-1.65,7.37s-1.49,4-.18,6.62a15.25,15.25,0,0,1,1.53,5.78M114.44,16.07a4.76,4.76,0,0,1-2,1.12c-.66.29-.54-.08-1,.55-.2.31-.14,1-.22,1.35-.4,1.76-1.57,3-2.14,4.68m-39.74,7a11.6,11.6,0,0,1,0,1.56c-.07.47-.43.88-.45,1.34,0,.8,1,2,1.48,2.57a9.77,9.77,0,0,1,2.51,4.79m15-22.52a11,11,0,0,1-1.8,1.75c-.73.75-.38,1.29-.21,2.37a35.37,35.37,0,0,1,.35,5.58m6.86-15.39c1.48-1.73,3.18-1.16,5.33-1.47.89-.14,1.74-.66,2.6-.87a19.45,19.45,0,0,0,2.6-.67,21,21,0,0,1,5.59-1c1.83-.17,4.41-1,5.74.47a11,11,0,0,1,1.57,2.09M69.72,23.1c-.19-1.28,2.87-1.84,3.78-2.37,1.47-.87,2.27-2.3,4-2.66s3.2-.32,4.75-1.41c1-.73,3.32-2.43,4.49-1M52.09,41.38a4,4,0,0,1,.45-2.48c.33-.53.94-1.07,1.33-1.64A10.92,10.92,0,0,0,56,32.91c.33-2,1.57-2.64,3.55-3,1.82-.35,3.22-1.45,5-1.78A9.86,9.86,0,0,1,66.17,28M54.46,54.43c1.56,0,3.32-2.1,5-1.12M45.23,65a11.59,11.59,0,0,1,4.29.53,7.53,7.53,0,0,1,1.9.89,9.67,9.67,0,0,0,1.5,1M52,49.86c.22,1.68,2.84,1.7,2.59,3.62S52.64,57.1,52.22,59c-.26,1.18,0,2.51-.27,3.65a13.65,13.65,0,0,0-.8,3.26m1.18,9.14c.3.56,1.09,1,1.4,1.56a5.06,5.06,0,0,1,.38,2c.06,1.24.18,2.78-.6,3.79M37.78,70.93c-2.29.46-3.09,1.79-3.19,4-.1,2-1.42,3.23-1.42,5.24M62.62,56.77c2.93,1.6-1.09,6.26-3.07,6.8M47.6,50.41c-.21,2-3.31,2.18-4.23,3.71-1.07,1.77-.27,4.1-1.21,5.88m4.37,12.27c-.08.61-.74,1.09-1,1.65a4.83,4.83,0,0,0-.3,1.8c0,1.21.3,2.44-.22,3.6s-1.25,1.69-.85,3.09c.31,1.08,1.45,2,1.42,3.12m-6.86-1c1.7.38,3.12,1.18,4.85,1.34,2,.18,3-1,4.85.11m-6-16.28a6.77,6.77,0,0,1,3.91,2.12c1.43,1.31,1.93.16,3.66,0m-3.9,42.92c.65,1.87-.48,2.62-2,3.46M42.87,96.9c.65,1.8,2.82,2.47,4.05,3.79,2,2.13.28,3.52-.74,5.47m-22.71,2.45c0,1.28-.28,2.33.82,3.12m4.14-20a5.55,5.55,0,0,0-2.46.91c-.2.67-.68,1.29-.85,2m12.31,18a41.34,41.34,0,0,0,4.51-.59c.79-.07,1.62-.05,2.44-.08s1.51-.33,2.39-.45m-24.37-11c1,.93,1.37,2,2.72,2.37a16.93,16.93,0,0,0,4.62.2,6.14,6.14,0,0,1,2.16.1c.37.18.71.87,1,1.21a3.44,3.44,0,0,0,2.6,1.25m-.59-11.82a10,10,0,0,0,2.37,4.69c.7.82.85.87.47,1.89a13.3,13.3,0,0,1-.91,1.9,11.1,11.1,0,0,0-.49,8.79,5.74,5.74,0,0,1,1.29,2c.29,1-.34,1.06-.75,1.9-.82,1.66.09,3.3.74,4.68M30,152.2c2-.1,2.85-1.14,3.67-2.78m-19.4-11.93c-1.2,1-.52,3,0,4.12m13.48-16.83c-.34-2.63-4.16-4.27-6.62-3.24m14.79,9c2,1.13,1.91,3.43,1.41,5.35a10.28,10.28,0,0,1-1,2.45c-.42.75-1.19,1.26-1.45,2m-18.69,7.13a6,6,0,0,0,3.2-.56,11.34,11.34,0,0,1,2.12-1.23c1-.22,2,.48,3.09.24.38-.09.73-.45,1.05-.55a6.34,6.34,0,0,1,2.13,0,19.21,19.21,0,0,1,3.05.24c.75.15,1.55.65,2.3.76,2.15.31,4.23-.42,6.25-.56h.12m-13.37-1c0-1.82,0-3.65,0-5.47a2.84,2.84,0,0,0-.71-2.23c-.62-.67-1.26-.67-1.07-1.78m-10-2c1.26,1,2.86,1,4.49,1.12,1.79.16,3.83.33,5.61.37,2.11.06,4.36-1.48,6.22-2.27" transform="translate(-3.24 -3.51)"/></svg>