<?xml version="1.0" encoding="utf-8"?>
<!-- Generator: Adobe Illustrator 23.1.1, SVG Export Plug-In . SVG Version: 6.00 Build 0)  -->
<svg version="1.1" id="Capa_1" xmlns="http://www.w3.org/2000/svg" xmlns:xlink="http://www.w3.org/1999/xlink" x="0px" y="0px"
	 viewBox="0 0 64 241.8" style="enable-background:new 0 0 64 241.8;" xml:space="preserve">
<style type="text/css">
	.st0{fill:#4A4A4A;}
</style>
<g>
	<g>
		<path class="st0" d="M32.2,183.7c-13.6,0-25,11.4-25,25s11.4,25,25,25c13.1,0,25-11.4,24.4-24.4C57.2,195,45.9,183.7,32.2,183.7z"
			/>
		<path class="st0" d="M26,8.2C14.1,11.6,6.7,22.4,6.7,35.5c0.6,7.9,1.1,15.9,1.7,23.8c1.7,30.1,3.4,59.6,5.1,89.7
			c0.6,10.2,8.5,17.6,18.7,17.6s18.2-7.9,18.7-18.2c0-6.2,0-11.9,0.6-18.2c1.1-19.3,2.3-38.6,3.4-57.9c0.6-12.5,1.7-25,2.3-37.5
			c0-4.5-0.6-8.5-2.3-12.5C49.8,11.1,37.9,5.4,26,8.2z"/>
	</g>
</g>
</svg>
