<?xml version="1.0" encoding="utf-8"?>
<!-- Generator: Adobe Illustrator 24.0.3, SVG Export Plug-In . SVG Version: 6.00 Build 0)  -->
<svg version="1.1" id="Ebene_1" xmlns="http://www.w3.org/2000/svg" xmlns:xlink="http://www.w3.org/1999/xlink" x="0px" y="0px"
	 viewBox="0 0 317 136" style="enable-background:new 0 0 317 136;" xml:space="preserve">
<style type="text/css">
	.st0{fill:#85868A;}
	.st1{fill:#AFB0B3;}
</style>
<g>
	<g id="iPad_1">
		<g id="Gruppe_167" transform="translate(4 34.099)">
			<g id="Gruppe_16" transform="translate(261.044 -30.098)">
				<path id="Pfad_14" class="st0" d="M-261,0l58.6,129h17.6l17.9-39.3l17.8,39.3h0l8.8-19.3l-17.9-39.3h-17.6l-17.8,39.3L-243.4,0
					H-261z"/>
			</g>
			<g id="Gruppe_17" transform="translate(372.963 5.079)">
				<path id="Pfad_15" class="st1" d="M-218.4,0l-33.8,74.5l-8.8,19.3l0,0h17.6L-200.8,0H-218.4z"/>
			</g>
			<g id="Gruppe_18" transform="translate(423.927 -30.098)">
				<path id="Pfad_16" class="st0" d="M-253,0l-8,17.6h17.6l8-17.6H-253z"/>
			</g>
			<g id="Gruppe_19" transform="translate(408.15 -30.098)">
				<path id="Pfad_17" class="st0" d="M-117.1,0l-49.8,109.5l-33.8-74.3h-17.7L-261,129h17.6l33.9-74.6l33.8,74.5l-0.1,0.1h17.7
					l0-0.1L-99.5,0H-117.1z"/>
			</g>
		</g>
	</g>
</g>
</svg>
