<?xml version="1.0" encoding="utf-8"?>
<!-- Generator: Adobe Illustrator 25.0.0, SVG Export Plug-In . SVG Version: 6.00 Build 0)  -->
<svg version="1.1" id="Ebene_1" xmlns="http://www.w3.org/2000/svg" xmlns:xlink="http://www.w3.org/1999/xlink" x="0px" y="0px"
	 viewBox="0 0 512 512" style="enable-background:new 0 0 512 512;" xml:space="preserve">
<style type="text/css">
	.st0{fill:#4E4E4D;}
</style>
<path class="st0" d="M497.2,398.7H356.9c-31.2,0-56.6,25.4-56.6,56.6c0,14.9-12.1,27.1-27.1,27.1H56.6c-14.9,0-27.1-12.1-27.1-27.1
	v-19.7c0-14.9,12.1-27.1,27.1-27.1l39,0c0,0,0,0,0,0c0.4,0,0.9,0,1.3-0.1c0.2,0,0.4,0,0.5-0.1c0.2,0,0.4,0,0.6-0.1l104.2-18
	c0.1,0,0.1,0,0.2,0c0.2,0,0.3-0.1,0.5-0.1c0.3-0.1,0.5-0.1,0.8-0.2c0.2,0,0.4-0.1,0.5-0.2c0.2-0.1,0.5-0.2,0.7-0.2
	c0.2-0.1,0.3-0.1,0.5-0.2c0.4-0.2,0.7-0.3,1.1-0.5c0.1-0.1,0.3-0.2,0.4-0.2c0.2-0.1,0.5-0.3,0.7-0.4c0.1-0.1,0.3-0.2,0.4-0.3
	c0.2-0.2,0.5-0.3,0.7-0.5c0.1-0.1,0.2-0.2,0.4-0.3c0.3-0.3,0.7-0.6,1-0.9L473.6,123c0,0,0,0,0,0c21.1-21.1,21.1-55.5,0-76.6
	L443,15.8c-21.1-21.1-55.5-21.1-76.6,0L103.2,279.1c-0.3,0.3-0.6,0.7-0.9,1c-0.1,0.1-0.2,0.2-0.3,0.4c-0.2,0.2-0.4,0.5-0.5,0.7
	c-0.1,0.1-0.2,0.3-0.3,0.4c-0.2,0.2-0.3,0.5-0.4,0.7c-0.1,0.2-0.2,0.3-0.3,0.5c-0.2,0.3-0.3,0.7-0.5,1c-0.1,0.2-0.1,0.4-0.2,0.5
	c-0.1,0.2-0.2,0.5-0.2,0.7c-0.1,0.2-0.1,0.4-0.2,0.6c-0.1,0.2-0.1,0.5-0.2,0.7c0,0.2-0.1,0.3-0.1,0.5c0,0.1,0,0.1,0,0.1l-15.9,92
	l-26.6,0C25.4,379,0,404.4,0,435.6v19.7C0,486.6,25.4,512,56.6,512h216.6c31.2,0,56.6-25.4,56.6-56.6c0-14.9,12.1-27.1,27.1-27.1
	h140.3c8.2,0,14.8-6.6,14.8-14.8C512,405.4,505.4,398.7,497.2,398.7z M123.3,320.1l46,46l-55.5,9.6L123.3,320.1z M343.6,80.4
	l22.2,22.2L156.7,311.8l-22.2-22.2L343.6,80.4z M199.9,354.9l-22.2-22.2l209.1-209.1l22.2,22.2L199.9,354.9z M387.3,36.7
	c9.6-9.6,25.2-9.6,34.8,0l30.6,30.6c9.6,9.6,9.6,25.2,0,34.8l-22.8,22.8c0,0,0,0,0,0s0,0,0,0l-65.4-65.4L387.3,36.7z"/>
</svg>
