<?xml version="1.0" encoding="utf-8"?>
<!-- Generator: Adobe Illustrator 25.0.0, SVG Export Plug-In . SVG Version: 6.00 Build 0)  -->
<svg version="1.1" id="Capa_1" xmlns="http://www.w3.org/2000/svg" xmlns:xlink="http://www.w3.org/1999/xlink" x="0px" y="0px"
	 viewBox="0 0 512 512" style="enable-background:new 0 0 512 512;" xml:space="preserve">
<style type="text/css">
	.st0{fill:#4E4E4D;}
</style>
<g>
	<g>
		<path class="st0" d="M498.8,66l-42.4-42.4C438.9,6,410.3,6,392.8,23.5l-11.9,11.9c-15.9-8.6-36.3-7.1-50.7,5.1
			C316.9,51.8,82.3,251.7,68.9,263.1c0,0-0.1,0.1-0.1,0.1c-8.8,7.6-4.1,17.1-2.2,22.8c9.9,29.7,2.3,61.9-19.8,84
			c-5.9,5.9-5.9,15.4,0,21.2l10.6,10.6l-53,53c-7.9,7.9-4.7,21.3,5.9,24.8l63.6,21.2c5.4,1.8,11.3,0.4,15.4-3.6l31.8-31.8l10.6,10.6
			c5.9,5.9,15.4,5.9,21.2,0c22.1-22.1,54.3-29.7,84-19.8c6.3,2.1,12.1,5.1,19.2,0.9c1.4-0.8,2.7-1.9,3.7-3.1
			c4.8-5.7,217-255.8,222.1-261.7c12.2-14.4,13.7-34.8,5.1-50.7l11.9-11.9C516.4,112.1,516.4,83.5,498.8,66z M74.6,469.5l-31.8-10.6
			L78.6,423l21.2,21.2L74.6,469.5z M185.2,425c-15.4,3.6-29.7,10.4-42.2,19.9l-65.1-65.1c9.5-12.5,16.3-26.8,19.9-42.2
			c1.5-6.6,2.5-13.2,2.8-19.9l104.4,104.4C198.4,422.5,191.7,423.4,185.2,425z M247.4,422.1L100.7,275.4l167.7-142.8l28.9,28.9
			l-53,53c-5.9,5.9-5.9,15.4,0,21.2l42.4,42.4c5.9,5.9,15.4,5.9,21.2,0l53-53l29,29L247.4,422.1z M350.3,150.8
			c5.9-5.9,15.4-5.9,21.2,0s5.9,15.4,0,21.2c-7.4,7.4-66.8,66.8-74.2,74.2l-21.2-21.2C283.5,217.6,342.9,158.2,350.3,150.8z
			 M459,172.8l-49.5,58.4l-27.3-27.3l10.6-10.6c17.6-17.6,17.6-46.1,0-63.6c-17.6-17.6-46.1-17.6-63.6,0l-10.6,10.6L291.3,113
			l58.2-49.6c5.9-5,14.8-4.6,20.3,0.8l1.7,1.7c0,0,0,0,0,0l84.9,84.9c0,0,0,0,0,0l1.7,1.7C463.6,158,464,166.9,459,172.8z
			 M477.6,108.4L467,119l-63.6-63.6L414,44.7c5.8-5.8,15.4-5.8,21.2,0l42.4,42.4C483.5,93,483.5,102.5,477.6,108.4z"/>
	</g>
</g>
</svg>
