<?xml version="1.0" encoding="utf-8"?>
<!-- Generator: Adobe Illustrator 25.0.0, SVG Export Plug-In . SVG Version: 6.00 Build 0)  -->
<svg version="1.1" id="Capa_1" xmlns="http://www.w3.org/2000/svg" xmlns:xlink="http://www.w3.org/1999/xlink" x="0px" y="0px"
	 viewBox="0 0 252.3 252.3" style="enable-background:new 0 0 252.3 252.3;" xml:space="preserve">
<style type="text/css">
	.st0{fill:#4E4E4D;}
</style>
<g>
	<path class="st0" d="M249,80.7c-3.4-2.3-8.1-1.5-10.4,2l-15.3,22.5c-9.7-44.7-49.6-78.4-97.1-78.4c-26.5,0-51.5,10.3-70.3,29.1
		c-2.9,2.9-2.9,7.7,0,10.6c2.9,2.9,7.7,2.9,10.6,0c15.9-15.9,37.1-24.7,59.7-24.7c41.3,0,75.8,29.9,83,69.2l-26.6-18.1
		c-3.4-2.3-8.1-1.5-10.4,2c-2.3,3.4-1.5,8.1,2,10.4l39.7,27.1c0,0,0,0,0,0c1,0.7,2,1.1,3.1,1.2c0.4,0.1,0.7,0.1,1.1,0.1
		c2.4,0,4.8-1.1,6.2-3.3L251,91.1C253.3,87.7,252.4,83,249,80.7z"/>
	<path class="st0" d="M187.2,184.4c-16.1,16.9-37.8,26.1-61.1,26.1c-41.3,0-75.8-29.9-83-69.2l26.6,18.1c1.3,0.9,2.8,1.3,4.2,1.3
		c2.4,0,4.8-1.1,6.2-3.3c2.3-3.4,1.5-8.1-2-10.4l-39.7-27.1c0,0,0,0,0,0c-3.4-2.3-8.1-1.5-10.4,2L1.3,161.1c-2.3,3.4-1.5,8.1,2,10.4
		c1.3,0.9,2.8,1.3,4.2,1.3c2.4,0,4.8-1.1,6.2-3.3L29,147.1c9.7,44.7,49.6,78.4,97.1,78.4c27.4,0,53-10.9,71.9-30.8
		c2.9-3,2.7-7.7-0.2-10.6C194.8,181.2,190.1,181.4,187.2,184.4z"/>
</g>
</svg>
