<svg xmlns="http://www.w3.org/2000/svg" viewBox="0 0 81.03 96.07">
    <defs>
        <style>
            .cls-1{fill:#4E4E4D;stroke-width:2%;}
            .cls-2{fill:none;stroke:#4E4E4D;stroke-linecap:round;stroke-linejoin:round;stroke-width:2%;}
        </style>
    </defs>
    <g id="Ebene_2" data-name="Ebene 2">
        <g id="Ebene_1-2" data-name="Ebene 1">
            <path class="cls-1" d="M38.62,73a.63.63,0,0,1-.48-.1l-4.38-3a.66.66,0,0,1-.27-.42.7.7,0,0,1,.1-.49L68.64,17.82a.66.66,0,0,1,.42-.27h0a.67.67,0,0,1,.48.1l4.38,3a.65.65,0,0,1,.17.9L39,72.73A.62.62,0,0,1,38.62,73ZM35,69.2l3.31,2.26,34.31-50.1-3.3-2.27Z"/>
            <path class="cls-1" d="M34.25,70h0a.7.7,0,0,1-.49-.1l-6.23-4.27a.66.66,0,0,1-.17-.91L62.41,13.56a.64.64,0,0,1,.9-.17l6.23,4.26a.68.68,0,0,1,.28.42.66.66,0,0,1-.11.49l-35,51.18A.66.66,0,0,1,34.25,70ZM28.8,64.93,34,68.47,68.27,18.36l-5.16-3.53Z"/>
            <path class="cls-1" d="M28,65.74a.66.66,0,0,1-.49-.1l-4.38-3a.62.62,0,0,1-.27-.41.66.66,0,0,1,.11-.49L58,10.56a.66.66,0,0,1,.42-.27h0a.65.65,0,0,1,.49.1l4.37,3a.65.65,0,0,1,.17.9l-35,51.18A.63.63,0,0,1,28,65.74Zm-3.59-3.8,3.3,2.26L62,14.09l-3.3-2.26Z"/>
            <path class="cls-1" d="M73.67,21.83a.67.67,0,0,1-.49-.11l-15-10.26a.65.65,0,0,1-.17-.9L64.54,1A2.52,2.52,0,0,1,67.94.4L80,8.64A2.45,2.45,0,0,1,80.6,12l-6.51,9.52A.68.68,0,0,1,73.67,21.83ZM59.47,10.76l13.91,9.52,6.15-9a1.15,1.15,0,0,0-.3-1.59l-12-8.23a1.16,1.16,0,0,0-1.58.3Z"/>
            <path class="cls-1" d="M16.07,89.84a.62.62,0,0,1-.49-.1.66.66,0,0,1-.26-.71l7.58-27.1a.65.65,0,0,1,1-.36l15,10.26a.66.66,0,0,1,0,1.06L16.34,89.73A.57.57,0,0,1,16.07,89.84ZM23.9,63.16,17.09,87.54l20.3-15.15Z"/>
            <path class="cls-1" d="M16.07,89.84a.62.62,0,0,1-.49-.1.66.66,0,0,1-.26-.71l3.11-11.12a.64.64,0,0,1,.31-.39.61.61,0,0,1,.49-.06,12.19,12.19,0,0,1,3.6,1.68,11.92,11.92,0,0,1,2.89,2.77.64.64,0,0,1-.13.91l-9.25,6.91A.57.57,0,0,1,16.07,89.84Z"/>
            <path class="cls-1" d="M19.5,78.91l-2.41,8.63,7.19-5.36a11.4,11.4,0,0,0-2.18-2A10.72,10.72,0,0,0,19.5,78.91Z"/>
            <path class="cls-2" d="M15.5,89.57H3.5a3,3,0,0,0,0,6h25s2,0,2-3,2-3,2-3h12"/>
        </g>
    </g>
</svg>
