<?xml version="1.0" encoding="utf-8"?>
<!-- Generator: Adobe Illustrator 25.0.0, SVG Export Plug-In . SVG Version: 6.00 Build 0)  -->
<svg version="1.1" id="Capa_1" xmlns="http://www.w3.org/2000/svg" xmlns:xlink="http://www.w3.org/1999/xlink" x="0px" y="0px"
	 viewBox="0 0 512 512" style="enable-background:new 0 0 512 512;" xml:space="preserve">
<style type="text/css">
	.st0{fill:#4E4E4D;}
</style>
<g>
	<g>
		<path class="st0" d="M491.6,34.4l-30-30C458.8,1.6,455,0,451,0c-26.1,0-304.1,0-317.6,0c-12,0-23.3,4.7-31.8,13.2L29.2,85.6
			C20.7,94.1,16,105.4,16,117.4V467c0,24.8,20.2,45,45,45h390c24.8,0,45-20.2,45-45V45C496,41,494.4,37.2,491.6,34.4z M166,29.9h150
			V105c0,8.3,6.7,15,15,15s15-6.7,15-15V30h30v105c0,8.3-6.7,15-15,15H181c-8.3,0-15-6.7-15-15V29.9z M376,482H136V331h240V482z
			 M376,301H136v-15c0-8.3,6.7-15.1,15-15.1h210c8.3,0,15,6.8,15,15.1V301z M466,467c0,8.3-6.7,15-15,15h-45V286
			c0-24.8-20.2-45-45-45H151c-24.8,0-45,20.2-45,45v196H61c-8.3,0-15-6.7-15-15V117.4c0-4,1.6-7.8,4.4-10.6l72.4-72.4
			c2.8-2.8,6.6-4.4,10.6-4.4h2.6v105c0,24.8,20.2,44.9,45,44.9h180c24.8,0,45-20.1,45-44.9V30h38.8L466,51.2V467z"/>
	</g>
</g>
</svg>
