<?xml version="1.0" encoding="utf-8"?>
<!-- Generator: Adobe Illustrator 24.3.0, SVG Export Plug-In . SVG Version: 6.00 Build 0)  -->
<svg version="1.1" id="_x2014_ŽÓť_x5F_1" xmlns="http://www.w3.org/2000/svg" xmlns:xlink="http://www.w3.org/1999/xlink"
	 x="0px" y="0px" viewBox="0 0 125.8 149.7" style="enable-background:new 0 0 125.8 149.7;" xml:space="preserve">
<style type="text/css">
	.st0{fill:#FFFFFF;}
	.st1{fill:#4E4E4D;}
</style>
<g>
	<g>
		<g>
			<path class="st0" d="M118.7,38.1c0,1.2,0,2.4-0.1,3.6c0,0.2,0,0.3,0,0.5c0,0.4,0,0.9-0.1,1.3c0,0.2,0,0.4,0,0.6
				c0,0.4-0.1,0.9-0.1,1.3c0,0.2,0,0.3,0,0.5c-0.1,0.6-0.1,1.1-0.2,1.7c0,0.3-0.1,0.5-0.1,0.8s-0.1,0.6-0.1,1c0,0.3-0.1,0.7-0.1,1
				c0,0.2-0.1,0.5-0.1,0.7s-0.1,0.5-0.1,0.7c-3.7,38.6-16.5,89.6-30.2,89.6h-0.1c-0.1,0-0.2,0-0.3,0c-0.1,0-0.1,0-0.2,0
				s-0.2,0-0.3,0h-0.1c0,0,0,0-0.1,0s-0.2-0.1-0.4-0.1h-0.1c-0.2-0.1-0.3-0.1-0.5-0.2c0,0,0,0-0.1,0c-0.1-0.1-0.2-0.1-0.4-0.2
				c-0.1,0-0.1-0.1-0.2-0.1c-0.1-0.1-0.2-0.1-0.3-0.2c-0.1,0-0.1-0.1-0.2-0.1c-0.1-0.1-0.2-0.2-0.3-0.2l-0.1-0.1
				c-0.1-0.1-0.2-0.2-0.3-0.4c0,0,0,0-0.1-0.1c-0.1-0.2-0.3-0.3-0.4-0.5c0-0.1-0.1-0.1-0.1-0.2c-0.1-0.1-0.2-0.3-0.3-0.4
				c0,0,0-0.1-0.1-0.1c0,0,0-0.1-0.1-0.1c-0.3-0.5-0.5-1-0.7-1.5c-1.1-2.8-1.5-5.8-1.3-8.8c0.1-1.4,0.2-2.9,0.2-4.4
				c0-16.4-6.8-29.8-15.4-30.6c-0.1,0-0.2,0-0.3,0c-0.1,0-0.2,0-0.3,0c-8.6,0.8-15.4,14.2-15.4,30.6c0,1.5,0.1,3,0.2,4.4
				c0.2,3-0.2,6-1.3,8.8c-0.2,0.6-0.5,1.1-0.7,1.5c0,0,0,0.1-0.1,0.1c0,0,0,0.1-0.1,0.1c-0.1,0.1-0.2,0.3-0.3,0.4
				c0,0.1-0.1,0.1-0.1,0.2c-0.1,0.2-0.3,0.4-0.4,0.5c0,0,0,0.1-0.1,0.1c-0.1,0.1-0.2,0.3-0.3,0.4c0,0.1-0.1,0.1-0.1,0.1
				c-0.1,0.1-0.2,0.2-0.3,0.2s-0.1,0.1-0.2,0.1c-0.1,0.1-0.2,0.1-0.3,0.2c-0.1,0-0.1,0.1-0.2,0.1c-0.1,0.1-0.2,0.1-0.4,0.2
				c0,0,0,0-0.1,0c-0.2,0.1-0.3,0.1-0.5,0.2h-0.1c-0.1,0-0.2,0.1-0.4,0.1c0,0,0,0-0.1,0h-0.1c-0.1,0-0.2,0-0.3,0s-0.1,0-0.2,0
				c-0.1,0-0.2,0-0.3,0h-0.1c-13.7,0-26.5-51-30.2-89.6c0-0.2-0.1-0.5-0.1-0.7s-0.1-0.5-0.1-0.7c0-0.3-0.1-0.7-0.1-1s-0.1-0.7-0.1-1
				s-0.1-0.5-0.1-0.8c0.5-0.5,0.4-1.1,0.4-1.6c0-0.2,0-0.3,0-0.5c0-0.4-0.1-0.9-0.1-1.3c0-0.2,0-0.4,0-0.6c0-0.4-0.1-0.9-0.1-1.3
				c0-0.2,0-0.3,0-0.5c-0.1-1.2-0.1-2.4-0.1-3.6c0-0.1,0-0.2,0-0.2c0-0.5,0-0.9,0-1.4c0-0.1,0-0.1,0-0.2c0-0.1,0-0.1,0-0.2
				c0-0.2,0-0.3,0-0.5C11.8,19.3,25.1,6,41.5,6c9.6,0,18.2,4.5,23.6,11.6C70.6,10.5,79.2,6,88.8,6c16.4,0,29.8,13.3,29.9,29.7
				c0,0.2,0,0.3,0,0.5c0,0.1,0,0.1,0,0.2c0,0.1,0,0.1,0,0.2C118.7,37.1,118.7,37.5,118.7,38.1C118.7,38,118.7,38,118.7,38.1z"/>
		</g>
		<g>
			<path class="st1" d="M87,143.7c-0.1,0-0.2,0-0.3,0c-0.1,0-0.3,0-0.4,0h-0.1H86c-0.2,0-0.3-0.1-0.5-0.1l-0.2-0.1
				c-0.2-0.1-0.5-0.2-0.7-0.3l-0.2-0.1c-0.2-0.1-0.4-0.2-0.5-0.3c-0.1,0-0.1-0.1-0.2-0.2c-0.1-0.1-0.3-0.2-0.4-0.3s-0.1-0.1-0.2-0.2
				c-0.1-0.1-0.2-0.2-0.4-0.3l0,0c-0.1-0.1-0.1-0.1-0.2-0.2c-0.1-0.1-0.3-0.3-0.4-0.5L82,141c-0.2-0.2-0.3-0.4-0.5-0.7
				c0-0.1-0.1-0.1-0.1-0.2c-0.1-0.1-0.2-0.3-0.3-0.5l-0.1-0.2c0-0.1-0.1-0.1-0.1-0.2c-0.3-0.5-0.6-1.1-0.8-1.7
				c-1.2-3-1.7-6.4-1.5-9.8c0.1-1.4,0.2-2.8,0.2-4.2c0-15-6.1-27.7-13.5-28.4h-0.1h-0.1c-7.5,0.7-13.5,13.5-13.5,28.4
				c0,1.4,0.1,2.8,0.2,4.3c0.3,3.4-0.2,6.8-1.5,9.8c-0.2,0.6-0.5,1.2-0.8,1.7c0,0.1-0.1,0.1-0.1,0.2l-0.1,0.2
				c-0.1,0.2-0.2,0.3-0.3,0.5c0,0.1-0.1,0.1-0.1,0.2c-0.2,0.2-0.3,0.5-0.5,0.7l-0.1,0.1c-0.1,0.2-0.3,0.3-0.4,0.5
				c0,0.1-0.1,0.1-0.2,0.2l-0.1,0.1c-0.1,0.1-0.2,0.2-0.3,0.3s-0.2,0.1-0.2,0.2c-0.1,0.1-0.3,0.2-0.4,0.3c-0.1,0.1-0.2,0.1-0.3,0.2
				c-0.2,0.1-0.3,0.2-0.5,0.3l-0.2,0.1c-0.2,0.1-0.4,0.2-0.7,0.3l-0.2,0.1c-0.2,0-0.3,0.1-0.5,0.1h-0.2H44c-0.2,0-0.3,0-0.4,0
				c-0.2,0-0.4,0-0.6,0h-0.1c-7.4,0-14.5-10.7-20.9-31.9c-5.2-17-9.5-39.3-11.4-59.7l-0.3-2.4c0-0.3-0.1-0.7-0.1-1v-0.3
				c0-0.2,0-0.4-0.1-0.6c-0.1-0.6-0.1-1.2-0.2-1.7v-0.5c0-0.4-0.1-0.9-0.1-1.3l0,0c0-0.2,0-0.4,0-0.5l0,0c0-0.4,0-0.8-0.1-1.2v-0.1
				c0-0.2,0-0.4,0-0.5c-0.1-1.2-0.1-2.5-0.1-3.7v-0.1v-0.1c0-0.5,0-1,0-1.5v-0.1c0,0,0,0,0-0.1v-0.1v-0.4l0,0
				c0-18,14.4-32.2,31.9-32.2c9.1,0,17.6,3.8,23.6,10.4C71.2,7.6,79.7,3.9,88.8,3.9c17.5,0,31.9,14.3,32,31.8v0.5v0.1c0,0,0,0,0,0.1
				v0.1c0,0.5,0,1,0,1.5v0.1c0,0.1,0,0.1,0,0.2c0,1.2,0,2.5-0.1,3.7c0,0.1,0,0.3,0,0.5c0,0.5,0,0.9-0.1,1.3l0,0c0,0.2,0,0.4,0,0.5
				l0,0c0,0.4-0.1,0.9-0.1,1.3v0.5c-0.1,0.6-0.1,1.2-0.2,1.8c0,0.2,0,0.3-0.1,0.5v0.3c0,0.3-0.1,0.7-0.1,1l-0.3,2.4
				c-2,20.4-6.2,42.7-11.4,59.7c-6.5,21.1-13.5,31.9-20.9,31.9h-0.1C87.3,143.7,87.1,143.7,87,143.7z M84.4,143L84.4,143L84.4,143z
				 M86.8,139.4C86.8,139.4,86.9,139.4,86.8,139.4C86.9,139.4,86.9,139.4,86.8,139.4H87l0,0c0,0,0,0,0.1,0h0.3
				c10.1,0,23.7-42.6,28-87.7l0.1-0.8l0.2-1.7c0-0.3,0.1-0.6,0.1-1v-0.3c0-0.2,0-0.3,0.1-0.5c0.1-0.6,0.1-1.1,0.2-1.7v-0.5
				c0-0.4,0.1-0.9,0.1-1.3c0-0.2,0-0.4,0-0.6c0-0.4,0-0.9,0.1-1.3c0-0.1,0-0.3,0-0.4c0.1-1.2,0.1-2.4,0.1-3.5V38c0-0.1,0-0.1,0-0.2
				c0-0.4,0-0.9,0-1.3v-0.1v-0.1v-0.1l0,0v-0.1v-0.6c0-15-12.4-27.3-27.6-27.3c-8.6,0-16.6,3.9-21.9,10.8l-1.7,2.2L63.5,19
				c-5.3-6.9-13.3-10.8-22-10.8c-15.2,0-27.6,12.3-27.7,27.5v0.6v0.3v0.1c0,0.4,0,0.9,0,1.3v0.1v0.1c0,1.2,0,2.3,0.1,3.5
				c0,0.2,0,0.3,0,0.4v0.1c0,0.4,0,0.8,0.1,1.2c0,0.2,0,0.4,0,0.6c0,0.4,0.1,0.8,0.1,1.3v0.5c0.1,0.5,0.1,1.1,0.2,1.7
				c0,0.2,0,0.3,0.1,0.5v0.3c0,0.3,0.1,0.6,0.1,0.9l0.3,2.5c4.3,45.1,18,87.7,28,87.7h0.3h0.1h0.1c0,0,0,0,0.1,0h0.1
				c0.1,0,0.1,0,0.2,0h0.1h0.1c0,0,0.1,0,0.1-0.1c0.1,0,0.1-0.1,0.2-0.1h0.1l0.1-0.1l0,0l0.1-0.1c0.1,0,0.1-0.1,0.2-0.2l0,0
				c0.1-0.1,0.2-0.2,0.3-0.3l0.1-0.1c0.1-0.1,0.2-0.2,0.3-0.4l0.1-0.1c0.1-0.1,0.1-0.2,0.2-0.3v-0.1l0,0c0,0,0-0.1,0.1-0.1
				c0.2-0.4,0.4-0.8,0.6-1.3c1-2.4,1.4-5.1,1.2-7.8c-0.1-1.5-0.2-3.1-0.2-4.6c0-17.7,7.5-31.8,17.3-32.7c0.1,0,0.3,0,0.4,0h0.2h0.2
				c0.1,0,0.2,0,0.3,0c9.9,0.9,17.4,15,17.4,32.7c0,1.5-0.1,3.1-0.2,4.6c-0.2,2.7,0.2,5.4,1.2,7.8c0.2,0.5,0.4,0.9,0.6,1.3
				c0,0,0,0.1,0.1,0.1l0,0v0.1c0.1,0.1,0.1,0.2,0.2,0.3l0,0l0.1,0.1c0.1,0.1,0.2,0.3,0.3,0.4c0,0,0,0,0,0.1c0.1,0.1,0.2,0.2,0.2,0.3
				l0.1,0.1c0.1,0.1,0.1,0.1,0.2,0.2c0,0,0.1,0,0.1,0.1l0,0l0.1,0.1l0,0c0.1,0,0.1,0.1,0.2,0.1c0,0,0.1,0,0.1,0.1h0.1h0.1
				C86.7,139.3,86.8,139.3,86.8,139.4z M45.1,138.2C45,138.2,45,138.2,45.1,138.2L45.1,138.2z"/>
		</g>
	</g>
	<g>
		<path class="st0" d="M118.7,35.9c0,0.2,0,0.4,0,0.6C118.1,70,69.6,91.2,65.5,93c-0.2,0.1-0.3,0.1-0.3,0.1s-0.1,0-0.3-0.1
			c-4.5-1.6-52.7-20.2-53.2-56.5c0-0.2,0-0.4,0-0.6c0-0.1,0-0.1,0-0.2C11.8,19.3,25.1,6,41.5,6c9.6,0,18.2,4.5,23.6,11.6
			C70.6,10.5,79.2,6,88.8,6c16.4,0,29.8,13.3,29.9,29.7C118.7,35.7,118.7,35.8,118.7,35.9z"/>
		<path class="st1" d="M65.2,95.4l-0.8-0.3c0,0-0.1,0-0.4-0.1c-5.5-2-54-20.9-54.6-58.5c0-0.2,0-0.4,0-0.6c0-0.1,0-0.2,0-0.3
			C9.7,18.1,24,3.9,41.5,3.9c9.1,0,17.6,3.8,23.6,10.4C71.2,7.6,79.7,3.9,88.8,3.9c17.5,0,31.9,14.2,32,31.8c0,0.1,0,0.2,0,0.3
			c0,0.2,0,0.4,0,0.6c-0.2,14.7-9,28.8-26.1,41.8C81.9,88.2,68.8,93.9,66.3,95c-0.2,0-0.3,0.1-0.3,0.1L65.2,95.4z M41.5,8.2
			c-15.2,0-27.6,12.3-27.7,27.5v0.1v0.1c0,0.2,0,0.4,0,0.5C14.3,70.3,58,88.1,65.1,90.8c2.9-1.2,15.2-6.9,27-15.9
			c16-12.2,24.2-25.2,24.4-38.5c0-0.2,0-0.4,0-0.5v-0.1v-0.1C116.4,20.5,104,8.2,88.8,8.2c-8.6,0-16.6,3.9-21.9,10.8l-1.7,2.2
			L63.5,19C58.2,12.1,50.2,8.2,41.5,8.2z"/>
	</g>
</g>
</svg>
